<svg width="535" height="473" viewBox="0 0 535 473" fill="none" xmlns="http://www.w3.org/2000/svg">
<g clip-path="url(#clip0_352_67159)">
<path d="M164.983 141.582L161.382 134.385L268.531 80.7687L272.191 88.084C271.575 88.3924 270.929 88.7157 270.276 89.0427C235.849 106.27 201.422 123.496 166.992 140.716C166.323 141.05 165.599 141.273 164.901 141.548L164.983 141.582Z" fill="black"/>
<path d="M88.0702 372.063C88.4455 372.627 88.895 373.154 89.196 373.756C106.492 408.301 123.783 442.858 141.072 477.407L141.975 479.212L134.638 482.883L80.9747 375.641C83.351 374.452 85.7347 373.259 88.1185 372.067L88.0702 372.063Z" fill="black"/>
<path d="M88.5861 276.007L80.9677 260.782L88.4679 257.029L84.5732 249.246L92.1848 245.437L88.3719 237.817L96.1617 233.919L92.386 226.374L107.676 218.723L107.587 218.693L111.325 226.164C109.306 227.175 107.468 228.216 105.533 229.026C103.881 229.713 103.762 230.553 104.598 232.001C105.624 233.772 106.464 235.655 107.471 237.667L99.9486 241.432L103.843 249.215L96.1203 253.079L99.9146 260.662C97.8056 261.717 95.8972 262.765 93.9107 263.638C92.5257 264.248 92.1843 264.92 92.9795 266.305C94.0386 268.143 94.912 270.093 95.9897 272.247L88.5118 275.989L88.6009 276.018L88.5861 276.007Z" fill="black"/>
<path d="M145.912 160.939L149.792 168.693L134.39 176.4L138.051 183.715C132.749 186.368 127.669 188.91 122.59 191.451L122.664 191.489L119.052 184.27L126.872 180.357L122.947 172.514L146.012 160.973L145.923 160.943L145.912 160.939Z" fill="black"/>
<path d="M84.6557 345.198L73.1575 322.219L80.8731 318.359L76.8893 310.397C79.4067 309.137 81.7829 307.948 84.1667 306.756L84.1332 306.744C85.0771 308.408 86.073 310.045 86.95 311.742C88.678 315.103 90.3467 318.493 92.149 322.095L84.6934 325.826L92.4084 341.244L84.5814 345.161L84.6706 345.19L84.6557 345.198Z" fill="black"/>
<path d="M146.001 160.969L142.14 153.253C142.875 152.885 143.521 152.562 144.167 152.239C150.472 149.084 156.776 145.929 163.077 142.767C163.746 142.432 164.355 141.979 164.989 141.578C164.989 141.578 164.908 141.544 164.904 141.537C166.19 144.107 167.476 146.676 168.866 149.454C161.157 153.311 153.538 157.124 145.919 160.936L146.008 160.966L146.001 160.969Z" fill="black"/>
<path d="M84.5645 345.169L96.0329 368.088C93.3225 369.444 90.7011 370.756 88.0723 372.071C88.0723 372.071 88.1206 372.075 88.1132 372.078C87.8753 371.38 87.719 370.641 87.3957 369.995C84.2963 363.745 81.1709 357.518 78.0493 351.28L76.9418 349.067C79.6374 347.718 82.1474 346.462 84.6574 345.206L84.5682 345.176L84.5645 345.169Z" fill="black"/>
<path d="M299.08 84.4625C293.874 87.0117 288.665 89.5534 283.471 92.1062C281.183 93.2321 278.904 94.3915 276.468 95.6103L272.707 88.0944L295.579 76.6495C296.754 79.2935 297.909 81.9003 299.062 84.4997L299.088 84.4588L299.08 84.4625Z" fill="black"/>
<path d="M299.054 84.5041L314.775 76.6376L318.628 84.3391L318.666 84.2463L303.45 91.8601C301.949 89.3054 300.522 86.8806 299.087 84.4596L299.065 84.5078L299.054 84.5041Z" fill="black"/>
<path d="M84.4526 287.659L92.03 302.802C89.3938 304.122 86.7725 305.433 84.1363 306.752C84.1363 306.752 84.1771 306.76 84.166 306.756C83.9503 306.065 83.8312 305.326 83.5191 304.684C81.4008 300.376 79.2379 296.091 76.9338 291.487C79.5626 290.171 82.0503 288.926 84.538 287.682L84.4526 287.659Z" fill="black"/>
<path d="M337.613 84.0136C341.34 82.2225 345.065 80.4426 348.789 78.6441C350.081 78.0161 351.365 77.3546 352.814 76.63L356.578 84.1533L341.526 91.6854C340.214 89.0638 338.924 86.4867 337.639 83.9171L337.605 84.0174L337.613 84.0136Z" fill="black"/>
<path d="M111.607 206.986L107.742 199.263C108.515 198.876 109.294 198.505 110.052 198.107C114.262 195.907 118.458 193.696 122.665 191.489L122.59 191.452C123.873 194.014 125.158 196.584 126.582 199.428C121.54 201.951 116.534 204.456 111.522 206.964L111.607 206.986Z" fill="black"/>
<path d="M318.629 84.3385L333.941 76.6763C335.175 79.142 336.394 81.5779 337.613 84.0139L337.646 83.9137C332.619 86.4293 327.592 88.945 322.327 91.5795C321.104 89.1361 319.881 86.6927 318.659 84.2493L318.621 84.3422L318.629 84.3385Z" fill="black"/>
<path d="M88.4951 275.977L92.3638 283.708C89.5939 285.094 87.0245 286.38 84.4551 287.666L84.5406 287.688C83.2807 285.17 82.0246 282.66 80.6756 279.964C83.4529 278.574 86.0149 277.292 88.5843 276.007L88.4951 275.977Z" fill="black"/>
<path d="M107.67 218.716L103.764 210.91C106.385 209.599 108.992 208.294 111.606 206.986L111.52 206.964C112.773 209.467 114.022 211.962 115.419 214.755C112.671 216.13 110.124 217.404 107.577 218.679L107.67 218.716Z" fill="black"/>
<path d="M426.245 106.793L418.381 110.728L414.75 103.472L421.998 99.8457C423.424 102.215 424.822 104.524 426.219 106.834L426.237 106.797L426.245 106.793Z" fill="black"/>
<path d="M402.899 99.7361L410.585 95.8902L414.23 103.176L406.604 106.992L402.929 99.647L402.899 99.7361Z" fill="black"/>
<path d="M402.926 99.639L395.567 103.321L391.728 95.6497L399.035 91.9932C400.336 94.5926 401.622 97.1622 402.907 99.7319L402.937 99.6427L402.926 99.639Z" fill="black"/>
<path d="M379.923 91.5829C382.422 90.4903 384.932 89.4015 387.524 88.2718L391.195 95.6094L383.851 99.2844C382.528 96.6405 381.242 94.0708 379.953 91.4938L379.923 91.5829Z" fill="black"/>
<path d="M368.386 88.2468L376.272 84.3006C377.491 86.7365 378.706 89.1651 379.918 91.5862C379.918 91.5862 379.947 91.497 379.951 91.4859C377.396 92.7642 374.842 94.0424 372.057 95.4359L368.411 88.1503L368.382 88.2394L368.386 88.2468Z" fill="black"/>
<path d="M368.412 88.1504L360.964 91.8774L357.117 84.1907L364.514 80.4897C365.818 83.0965 367.104 85.6661 368.39 88.2358L368.42 88.1467L368.412 88.1504Z" fill="black"/>
</g>
<defs>
<clipPath id="clip0_352_67159">
<rect width="480" height="480" fill="white" transform="translate(645.029 430.229) rotate(153.417)"/>
</clipPath>
</defs>
</svg>
