<svg viewBox="0 0 480 480" fill="none" xmlns="http://www.w3.org/2000/svg">
<g clip-path="url(#clip0_352_61884)">
<path d="M300.132 472.953V481H180.316V472.82C181.006 472.82 181.728 472.82 182.459 472.82C220.955 472.82 259.451 472.82 297.948 472.828C298.695 472.828 299.442 472.953 300.19 473.019L300.132 472.953Z" fill="black"/>
<path d="M472.052 301.254C471.969 300.582 471.803 299.909 471.803 299.236C471.795 260.603 471.795 221.962 471.795 183.329V181.311H479.999V301.23C477.342 301.23 474.676 301.23 472.011 301.23L472.052 301.254Z" fill="black"/>
<path d="M428.607 386.925V403.949H420.22V412.653H411.708V421.173H402.998V429.611H385.9L385.967 429.677V421.323C388.225 421.323 390.335 421.215 392.427 421.356C394.212 421.48 394.694 420.783 394.594 419.114C394.47 417.071 394.561 415.011 394.561 412.761H402.973V404.057H411.609V395.578C413.967 395.578 416.143 395.495 418.31 395.603C419.821 395.678 420.427 395.229 420.336 393.635C420.212 391.517 420.303 389.383 420.303 386.975H428.665L428.598 386.908L428.607 386.925Z" fill="black"/>
<path d="M325.848 464.175V455.505H343.07V447.325C348.999 447.325 354.679 447.325 360.359 447.325L360.309 447.258V455.33H351.565V464.1H325.773L325.84 464.167L325.848 464.175Z" fill="black"/>
<path d="M463.084 326.808V352.502H454.456V361.405C451.641 361.405 448.984 361.405 446.319 361.405L446.343 361.43C446.244 359.52 446.086 357.61 446.061 355.699C446.02 351.921 446.045 348.142 446.045 344.114H454.382V326.874H463.134L463.067 326.808H463.084Z" fill="black"/>
<path d="M446.262 120.886H437.543V112.34H428.65C428.65 106.519 428.65 100.946 428.65 95.374L428.592 95.4405H437.286V103.828H445.963C445.963 106.07 445.938 108.047 445.963 110.023C446.021 113.669 446.121 117.307 446.204 120.944L446.262 120.878V120.886Z" fill="black"/>
<path d="M325.782 464.108V472.737C324.96 472.737 324.237 472.737 323.515 472.737C316.465 472.737 309.415 472.737 302.365 472.745C301.618 472.745 300.87 472.878 300.123 472.953C300.123 472.953 300.181 473.019 300.181 473.028C300.181 470.154 300.181 467.281 300.181 464.175C308.8 464.175 317.32 464.175 325.84 464.175L325.773 464.108H325.782Z" fill="black"/>
<path d="M463.152 326.874V301.246C466.183 301.246 469.114 301.246 472.054 301.246C472.054 301.246 472.012 301.221 472.021 301.221C471.921 301.952 471.73 302.683 471.73 303.405C471.705 310.381 471.714 317.349 471.714 324.325V326.799C468.699 326.799 465.893 326.799 463.086 326.799L463.152 326.866V326.874Z" fill="black"/>
<path d="M154.649 464.025C160.445 464.075 166.241 464.133 172.028 464.175C174.578 464.191 177.135 464.175 179.859 464.175V472.579H154.283C154.416 469.689 154.549 466.841 154.682 464L154.64 464.025H154.649Z" fill="black"/>
<path d="M316.914 18.2653C313.468 18.2072 310.022 18.1075 306.576 18.0909C301.676 18.0577 296.769 18.0909 291.695 18.0909V9.53711H317.263C317.13 12.477 317.005 15.3919 316.881 18.3068L316.914 18.2819V18.2653Z" fill="black"/>
<path d="M462.951 155.707C465.75 155.558 468.548 155.417 471.529 155.259V180.87H463.142V178.661C463.142 171.752 463.142 164.851 463.142 157.941C463.142 157.194 463.034 156.438 462.976 155.691L462.959 155.716L462.951 155.707Z" fill="black"/>
<path d="M316.873 18.2901C324.471 18.2403 332.061 18.1822 339.659 18.1323C340.672 18.1323 341.693 18.1323 342.806 18.1323V26.329H317.496C317.305 23.6466 317.114 20.9476 316.915 18.2569L316.873 18.2901Z" fill="black"/>
<path d="M154.691 464.001H137.112V455.389L137.037 455.455H154.052C154.251 458.412 154.442 461.219 154.641 464.025L154.683 463.992L154.691 464.001Z" fill="black"/>
<path d="M454.307 138.168H462.959C462.959 144.014 462.959 149.861 462.959 155.699C462.959 155.699 462.976 155.674 462.976 155.682C461.365 155.55 459.762 155.384 458.151 155.3C456.997 155.242 455.843 155.292 454.373 155.292C454.373 149.388 454.373 143.749 454.373 138.102L454.315 138.176L454.307 138.168Z" fill="black"/>
<path d="M360.261 35.0991H343.18V26.7695H360.194V35.1655L360.261 35.0991Z" fill="black"/>
<path d="M437.518 378.355V361.422C440.465 361.422 443.397 361.422 446.345 361.422C446.345 361.422 446.311 361.397 446.32 361.405C446.203 362.119 445.979 362.833 445.971 363.548C445.938 368.348 445.954 373.148 445.954 378.297C443.015 378.297 440.233 378.297 437.451 378.297L437.518 378.355Z" fill="black"/>
<path d="M119.99 447.184C115.855 447.117 111.728 447.043 107.592 446.984C106.156 446.968 104.711 446.984 103.092 446.984V438.572H119.924C119.924 441.503 119.924 444.385 119.924 447.258L119.998 447.184H119.99Z" fill="black"/>
<path d="M377.132 438.347V446.984C376.268 446.984 375.405 446.967 374.55 446.984C369.8 447.067 365.058 447.167 360.309 447.258L360.358 447.324C360.358 444.459 360.358 441.586 360.358 438.405C365.997 438.405 371.593 438.405 377.198 438.405L377.132 438.347Z" fill="black"/>
<path d="M386.125 51.9158C384.912 52.0238 383.7 52.2148 382.479 52.2231C378.02 52.2563 373.561 52.2397 368.961 52.2397V43.9849H386.1V51.949L386.125 51.9158Z" fill="black"/>
<path d="M446.204 120.952H454.316C454.316 126.89 454.316 132.529 454.316 138.168C454.316 138.168 454.375 138.093 454.375 138.101C451.701 138.101 449.035 138.101 446.253 138.101C446.253 132.222 446.253 126.558 446.253 120.894L446.195 120.952H446.204Z" fill="black"/>
<path d="M137.111 455.389H119.989C119.989 452.631 119.989 449.908 119.989 447.184L119.914 447.258C125.536 447.258 131.157 447.258 137.045 447.258C137.045 449.991 137.045 452.723 137.045 455.455L137.119 455.389H137.111Z" fill="black"/>
<path d="M428.674 386.992V378.347C431.771 378.347 434.644 378.347 437.517 378.347L437.451 378.289C437.451 381.104 437.451 383.911 437.451 386.925C434.345 386.925 431.481 386.925 428.607 386.925L428.674 386.992Z" fill="black"/>
<path d="M385.902 429.619V438.347C382.97 438.347 380.056 438.347 377.133 438.347L377.199 438.405C377.199 435.607 377.199 432.816 377.199 429.694C380.272 429.694 383.12 429.694 385.968 429.694L385.902 429.619Z" fill="black"/>
<path d="M386.1 51.9575C387.636 52.0904 389.164 52.2648 390.7 52.3562C391.854 52.4226 393.017 52.3728 394.295 52.3728V60.7272H386.116C386.116 57.804 386.116 54.8725 386.116 51.9326L386.1 51.9658V51.9575Z" fill="black"/>
<path d="M360.193 35.1651H368.539V43.6773H360.26C360.26 40.8288 360.26 37.9637 360.26 35.0986L360.193 35.1651Z" fill="black"/>
<path d="M420.603 86.4463H428.583C428.583 89.6187 428.583 92.5253 428.583 95.4402L428.641 95.3738C425.967 95.3738 423.293 95.3738 420.188 95.3738C420.345 92.2263 420.486 89.3197 420.636 86.4214L420.603 86.4463Z" fill="black"/>
<path d="M50.9199 387.149H59.7136V395.263H51.6091C51.3932 392.506 51.1773 389.815 50.9614 387.125L50.9282 387.149H50.9199Z" fill="black"/>
<path d="M420.635 86.4217H411.85V78.3164H419.962C420.178 81.0652 420.386 83.7643 420.602 86.4467L420.643 86.4217H420.635Z" fill="black"/>
<path d="M68.6393 403.908H60.0449V395.761H68.5729V403.975L68.6393 403.908Z" fill="black"/>
<path d="M68.5728 403.982H76.8018V412.561H68.6309C68.6309 409.655 68.6309 406.781 68.6309 403.908L68.5645 403.974L68.5728 403.982Z" fill="black"/>
<path d="M85.5386 421.481C82.815 421.339 80.083 421.19 77.2598 421.04V412.835H85.4722C85.4722 415.792 85.4722 418.665 85.4722 421.547L85.5386 421.481Z" fill="black"/>
<path d="M94.364 429.627H85.5454C85.5454 426.903 85.5454 424.188 85.5454 421.48C85.5454 421.48 85.479 421.547 85.4707 421.555C88.3272 421.555 91.1837 421.555 94.2976 421.555V429.702L94.364 429.636V429.627Z" fill="black"/>
<path d="M94.2974 429.702H102.626V438.297H94.3555C94.3555 435.383 94.3555 432.509 94.3555 429.636L94.2891 429.702H94.2974Z" fill="black"/>
<path d="M402.916 69.6626H411.51V77.8095H402.982V69.5962L402.916 69.6626Z" fill="black"/>
<path d="M402.983 69.5963H394.754V61.0093H402.917C402.917 63.9159 402.917 66.7893 402.917 69.6627L402.983 69.5963Z" fill="black"/>
<path d="M8.56949 292.186H0V189.474H8.39511L8.32038 189.408C8.35359 190.305 8.40342 191.202 8.40342 192.098C8.40342 224.653 8.40342 257.215 8.41172 289.769C8.41172 290.591 8.48645 291.422 8.52797 292.244L8.56119 292.194L8.56949 292.186Z" fill="black"/>
<path d="M197.24 9.43752V1H282.902V9.37108H197.174L197.24 9.43752Z" fill="black"/>
<path d="M42.7822 112.257V129.448H34.1878V146.73H25.5684V163.771C22.6538 163.771 19.9219 163.771 17.1816 163.771L17.2481 163.829V138.101H25.5934V121.11H34.0881V112.324C37.1107 112.324 39.9755 112.324 42.8403 112.324L42.7739 112.257H42.7822Z" fill="black"/>
<path d="M8.53604 292.236C10.5123 292.336 12.4803 292.452 14.4566 292.535C15.2621 292.568 16.0759 292.535 17.0723 292.535V318.246H25.3595V343.783H17.1554V326.858H8.6606C8.56926 326.385 8.46131 326.069 8.46131 325.745C8.453 314.974 8.453 304.195 8.46131 293.423C8.46131 293.008 8.52774 292.601 8.56926 292.186L8.53604 292.236Z" fill="black"/>
<path d="M162.654 18.0747V26.4043H145.806V34.983H128.783V26.7364H137.004V18.1328C145.756 18.1328 154.234 18.1328 162.712 18.1328L162.646 18.0747H162.654Z" fill="black"/>
<path d="M197.173 9.37109V18.0744C185.556 18.0744 174.105 18.0744 162.662 18.0744L162.729 18.1325C162.729 15.3172 162.729 12.5102 162.729 9.43753C174.404 9.43753 185.821 9.43753 197.247 9.43753L197.181 9.37109H197.173Z" fill="black"/>
<path d="M59.8289 86.5708V103.745C57.562 103.745 55.4528 103.828 53.3519 103.72C51.7825 103.637 51.0933 104.069 51.2179 105.779C51.3673 107.831 51.2511 109.899 51.2511 112.257C48.3614 112.257 45.5713 112.257 42.7812 112.257L42.8477 112.324C42.8477 106.751 42.8477 101.179 42.8477 95.3571H51.3923V86.6455H59.9036L59.8372 86.5791L59.8289 86.5708Z" fill="black"/>
<path d="M111.304 43.8687V52.2397C108.995 52.2397 106.82 52.3145 104.644 52.2148C103.224 52.1484 102.659 52.5885 102.726 54.0751C102.826 56.2592 102.751 58.4516 102.751 60.8184H85.5703L85.6367 60.8849V52.3726H94.2976V43.9434H111.362L111.295 43.877L111.304 43.8687Z" fill="black"/>
<path d="M34.1289 361.305H42.8147V369.851H50.9191V387.158L50.9524 387.133H42.906V378.297H34.2036V361.239L34.1372 361.305H34.1289Z" fill="black"/>
<path d="M8.39554 189.466V163.821C11.5011 163.821 14.3743 163.821 17.2474 163.821L17.1809 163.763C17.1477 171.428 17.1145 179.093 17.0813 186.75C17.0813 187.564 17.0813 188.386 17.0813 189.399C14.0587 189.399 11.1856 189.399 8.3125 189.399L8.38723 189.466H8.39554Z" fill="black"/>
<path d="M34.1935 361.239H25.7734V344.198H34.127C34.127 349.92 34.127 355.608 34.127 361.305L34.1935 361.239Z" fill="black"/>
<path d="M111.361 43.9435V35.3149H128.376V43.8687C122.596 43.8687 116.95 43.8687 111.295 43.8687L111.361 43.9352V43.9435Z" fill="black"/>
<path d="M59.8946 86.6372V78.2661H68.4142V86.5708C65.566 86.5708 62.7012 86.5708 59.8281 86.5708L59.8946 86.6372Z" fill="black"/>
<path d="M85.5689 60.8179V69.4132H77.3066V60.8843C80.0469 60.8843 82.8453 60.8843 85.6353 60.8843L85.5689 60.8179Z" fill="black"/>
<path d="M68.6719 77.8348V69.7295H76.8428V77.8348H68.6719Z" fill="black"/>
</g>
<defs>
<clipPath id="clip0_352_61884">
<rect width="480" height="480" fill="white"/>
</clipPath>
</defs>
</svg>
