<svg width="72" height="49" viewBox="0 0 72 49" fill="none" xmlns="http://www.w3.org/2000/svg">
<path fill-rule="evenodd" clip-rule="evenodd" d="M29.7783 5.73501C32.0854 3.43176 35.2996 2.00151 38.8526 2.00151C43.5757 2.00151 47.6977 4.52601 49.8921 8.27376C51.8556 7.43326 53.9822 7.00004 56.1326 7.00251C64.6521 7.00251 71.5579 13.679 71.5579 21.9163C71.5579 30.1535 64.6521 36.83 56.1326 36.83C55.091 36.83 54.0752 36.7303 53.093 36.5405C51.1607 39.8428 47.4762 42.0748 43.2493 42.0748C41.4799 42.0748 39.8059 41.6848 38.3166 40.9865C36.3569 45.404 31.7919 48.5 26.4726 48.5C20.9333 48.5 16.211 45.14 14.3993 40.4293C13.592 40.5925 12.7692 40.6747 11.9442 40.6745C5.3476 40.6753 3.31754e-05 35.4973 3.31754e-05 29.1095C-0.00491569 27.0852 0.543895 25.0949 1.59176 23.3372C2.63962 21.5795 4.14992 20.1157 5.97212 19.0918C5.21615 17.4224 4.8272 15.6218 4.82951 13.802C4.82951 6.45501 11.052 0.500009 18.7279 0.500009C20.8662 0.497618 22.9761 0.968865 24.893 1.87696C26.8099 2.78506 28.4818 4.10543 29.7783 5.73501Z" fill="black"/>
</svg>
