<svg width="70" height="81" viewBox="0 0 70 81" fill="none" xmlns="http://www.w3.org/2000/svg">
<path id="Vector" d="M63.6802 29.0249H69.4014V40.5254H63.7415V46.1258H12.0614V63.4433C13.521 63.4433 15.0307 63.4877 16.5348 63.4266C17.4595 63.3878 17.7548 63.7264 17.7213 64.6255C17.6656 66.0909 17.7046 67.5562 17.7046 69.0992H40.6395V63.4877H46.4331V57.8928H57.8142V69.0881H52.2768V74.9106H40.7119V80.461H17.8105V75.0049H6.17314V63.4044H0.580078V23.4022H6.123V17.6575H11.8943V11.8628H17.7158V6.27904H23.3144V0.54541H46.4387V6.15138H57.8086V11.7796H63.6691V29.0304L63.6802 29.0249ZM12.0113 34.7085H57.8142V28.8972H52.2378V17.5298H46.4053V11.8573H23.3423V17.6297H17.6266V29.0082H12.0113V34.7085Z" fill="black"/>
</svg>
