<svg width="535" height="580" viewBox="0 0 535 580" fill="none" xmlns="http://www.w3.org/2000/svg">
<g clip-path="url(#clip0_2346_8604)">
<path d="M477.773 360.398L473.046 368.65L456.513 359.177L451.785 367.428L435.252 357.955L439.98 349.704L456.513 359.177L461.24 350.925L477.773 360.398Z" fill="black"/>
<path d="M338.318 565.462L333.59 573.713L350.123 583.186L354.851 574.934L338.318 565.462Z" fill="black"/>
<path d="M326.513 547.737L321.785 555.988L338.318 565.461L343.046 557.21L326.513 547.737Z" fill="black"/>
<path d="M358.447 434.51L353.719 442.762L370.252 452.235L374.98 443.983L358.447 434.51Z" fill="black"/>
<path d="M341.913 425.038L337.186 433.289L345.452 438.026L350.18 429.774L341.913 425.038Z" fill="black"/>
<path d="M325.38 415.565L320.652 423.816L328.919 428.553L333.647 420.302L325.38 415.565Z" fill="black"/>
<path d="M350.209 353.07L345.481 361.321L328.948 351.848L324.221 360.1L307.688 350.627L302.96 358.878L286.427 349.405L281.699 357.656L265.166 348.183L260.438 356.435L243.905 346.962L239.178 355.213L222.645 345.74L227.372 337.489L243.905 346.962L248.633 338.711L265.166 348.183L269.894 339.932L286.427 349.405L291.155 341.154L307.688 350.627L312.415 342.375L328.948 351.848L333.676 343.597L350.209 353.07Z" fill="black"/>
<path d="M267.486 459.116L262.758 467.367L279.291 476.84L284.019 468.589L267.486 459.116Z" fill="black"/>
<path d="M255.681 441.391L250.953 449.643L267.486 459.116L272.214 450.864L255.681 441.391Z" fill="black"/>
<path d="M410.509 190.337L401.053 206.839L392.787 202.103L383.331 218.606L375.064 213.869L384.52 197.366L392.787 202.103L402.242 185.6L410.509 190.337Z" fill="black"/>
<path d="M349.047 297.604L344.319 305.855L336.053 301.119L331.325 309.37L323.059 304.634L318.331 312.885L310.064 308.148L314.792 299.897L323.059 304.634L327.787 296.382L336.053 301.119L340.781 292.867L349.047 297.604Z" fill="black"/>
<path d="M227.314 490.899L222.586 499.15L230.852 503.887L235.58 495.636L227.314 490.899Z" fill="black"/>
<path d="M243.876 423.667L239.148 431.918L255.681 441.391L260.409 433.14L243.876 423.667Z" fill="black"/>
<path d="M223.777 477.911L219.049 486.162L227.315 490.899L232.043 482.647L223.777 477.911Z" fill="black"/>
<path d="M220.238 464.922L215.51 473.174L223.776 477.91L228.504 469.659L220.238 464.922Z" fill="black"/>
<path d="M232.072 405.942L227.344 414.193L243.877 423.666L248.605 415.415L232.072 405.942Z" fill="black"/>
<path d="M220.265 388.217L215.537 396.469L232.07 405.942L236.798 397.69L220.265 388.217Z" fill="black"/>
<path d="M304.177 260.933L294.721 277.435L286.455 272.699L276.999 289.202L268.733 284.465L259.277 300.968L251.011 296.231L241.555 312.734L233.288 307.997L223.833 324.5L215.566 319.764L225.022 303.261L233.288 307.997L242.744 291.495L251.011 296.231L260.466 279.729L268.733 284.465L278.188 267.962L286.455 272.699L295.91 256.196L304.177 260.933Z" fill="black"/>
<path d="M177.715 462.48L168.26 478.982L176.526 483.719L185.982 467.216L177.715 462.48Z" fill="black"/>
<path d="M208.46 370.495L203.732 378.746L220.265 388.219L224.993 379.968L208.46 370.495Z" fill="black"/>
<path d="M178.905 441.241L169.449 457.744L177.716 462.481L187.171 445.978L178.905 441.241Z" fill="black"/>
<path d="M180.094 420.001L170.639 436.504L178.905 441.24L188.361 424.738L180.094 420.001Z" fill="black"/>
<path d="M181.282 398.763L171.826 415.266L180.093 420.002L189.548 403.499L181.282 398.763Z" fill="black"/>
<path d="M209.649 349.254L204.921 357.506L196.655 352.769L191.927 361.02L183.66 356.284L178.933 364.535L170.666 359.799L175.394 351.548L183.66 356.284L188.388 348.033L196.655 352.769L201.382 344.518L209.649 349.254Z" fill="black"/>
<path d="M182.471 377.523L173.016 394.025L181.282 398.762L190.738 382.259L182.471 377.523Z" fill="black"/>
<path d="M197.845 331.53L193.117 339.781L201.384 344.518L206.111 336.266L197.845 331.53Z" fill="black"/>
<path d="M288.862 153.517L279.406 170.02L287.673 174.756L297.128 158.253L288.862 153.517Z" fill="black"/>
<path d="M274.677 178.27L269.949 186.521L278.216 191.258L282.943 183.007L274.677 178.27Z" fill="black"/>
<path d="M265.222 194.772L260.494 203.023L268.761 207.76L273.488 199.509L265.222 194.772Z" fill="black"/>
<path d="M202.573 323.28L197.845 331.531L189.578 326.794L184.851 335.046L176.584 330.309L171.856 338.561L163.59 333.824L168.318 325.573L176.584 330.309L181.312 322.058L189.578 326.794L194.306 318.543L202.573 323.28Z" fill="black"/>
<path d="M104.478 475.317L99.75 483.568L108.016 488.305L112.744 480.053L104.478 475.317Z" fill="black"/>
<path d="M95.0227 491.821L90.2949 500.072L98.5614 504.809L103.289 496.557L95.0227 491.821Z" fill="black"/>
<path d="M85.5669 508.324L76.1113 524.826L84.3778 529.563L93.8334 513.06L85.5669 508.324Z" fill="black"/>
<path d="M171.855 338.561L167.127 346.812L175.393 351.549L180.121 343.298L171.855 338.561Z" fill="black"/>
<path d="M191.956 284.316L182.5 300.818L190.766 305.555L200.222 289.052L191.956 284.316Z" fill="black"/>
<path d="M157.673 363.314L148.217 379.816L139.951 375.08L130.495 391.582L122.229 386.846L112.773 403.349L104.507 398.612L95.051 415.115L86.7846 410.378L77.329 426.881L69.0625 422.145L78.5181 405.642L86.7846 410.378L96.2401 393.876L104.507 398.612L113.962 382.109L122.229 386.846L131.684 370.343L139.951 375.08L149.406 358.577L157.673 363.314Z" fill="black"/>
<path d="M193.145 263.077L183.689 279.58L191.956 284.317L201.412 267.814L193.145 263.077Z" fill="black"/>
<path d="M194.334 241.837L184.879 258.34L193.145 263.076L202.601 246.574L194.334 241.837Z" fill="black"/>
<path d="M152.974 294.86L148.246 303.111L164.779 312.584L169.507 304.333L152.974 294.86Z" fill="black"/>
<path d="M150.596 337.339L145.868 345.591L129.335 336.118L124.607 344.369L108.074 334.896L103.346 343.148L86.8135 333.675L82.0857 341.926L65.5528 332.453L60.825 340.704L44.292 331.231L39.5642 339.483L23.0312 330.01L27.759 321.758L44.292 331.231L49.0198 322.98L65.5528 332.453L70.2805 324.202L86.8135 333.675L91.5413 325.423L108.074 334.896L112.802 326.645L129.335 336.118L134.063 327.866L150.596 337.339Z" fill="black"/>
<path d="M195.524 220.599L186.068 237.102L194.335 241.838L203.79 225.335L195.524 220.599Z" fill="black"/>
<path d="M196.711 199.359L187.256 215.861L195.522 220.598L204.978 204.095L196.711 199.359Z" fill="black"/>
<path d="M141.167 277.135L136.439 285.387L152.972 294.86L157.7 286.608L141.167 277.135Z" fill="black"/>
<path d="M129.363 259.413L124.635 267.664L141.168 277.137L145.896 268.886L129.363 259.413Z" fill="black"/>
<path d="M117.558 241.688L112.83 249.939L129.363 259.412L134.091 251.161L117.558 241.688Z" fill="black"/>
<path d="M202.657 93.1634L193.201 109.666L201.468 114.402L210.923 97.8998L202.657 93.1634Z" fill="black"/>
<path d="M145.925 192.18L141.197 200.432L149.464 205.168L154.192 196.917L145.925 192.18Z" fill="black"/>
<path d="M50.1801 378.446L45.4523 386.697L37.1858 381.961L32.458 390.212L24.1915 385.475L19.4638 393.727L11.1973 388.99L15.925 380.739L24.1915 385.475L28.9193 377.224L37.1858 381.961L41.9136 373.709L50.1801 378.446Z" fill="black"/>
<path d="M203.846 71.9251L194.391 88.4277L202.657 93.1642L212.113 76.6616L203.846 71.9251Z" fill="black"/>
<path d="M142.386 179.192L137.658 187.443L145.925 192.18L150.652 183.929L142.386 179.192Z" fill="black"/>
<path d="M105.753 223.963L101.025 232.215L117.558 241.688L122.286 233.436L105.753 223.963Z" fill="black"/>
<path d="M138.847 166.204L134.119 174.455L142.386 179.192L147.113 170.94L138.847 166.204Z" fill="black"/>
<path d="M93.9465 206.239L89.2188 214.49L105.752 223.963L110.48 215.712L93.9465 206.239Z" fill="black"/>
<path d="M44.3196 254.526L39.5918 262.777L47.8583 267.514L52.5861 259.262L44.3196 254.526Z" fill="black"/>
<path d="M27.7864 245.053L23.0586 253.305L31.3251 258.041L36.0529 249.79L27.7864 245.053Z" fill="black"/>
<path d="M2.98755 230.842L-1.74023 239.094L14.7927 248.567L19.5205 240.315L2.98755 230.842Z" fill="black"/>
<path d="M34.9211 117.618L30.1934 125.869L46.7263 135.342L51.4541 127.091L34.9211 117.618Z" fill="black"/>
<path d="M23.1165 99.8932L18.3887 108.145L34.9216 117.617L39.6494 109.366L23.1165 99.8932Z" fill="black"/>
<path d="M435.252 357.957L430.524 366.208L413.991 356.735L409.263 364.986L392.731 355.514L388.003 363.765L371.47 354.292L366.742 362.543L350.209 353.07L354.937 344.819L371.47 354.292L376.198 346.041L392.731 355.514L397.458 347.262L413.991 356.735L418.719 348.484L435.252 357.957Z" fill="black"/>
<path d="M314.706 530.012L309.979 538.264L326.511 547.737L331.239 539.485L314.706 530.012Z" fill="black"/>
<path d="M302.902 512.288L298.174 520.539L314.707 530.012L319.435 521.761L302.902 512.288Z" fill="black"/>
<path d="M291.097 494.563L286.369 502.814L302.902 512.287L307.63 504.036L291.097 494.563Z" fill="black"/>
<path d="M279.292 476.839L274.564 485.09L291.097 494.563L295.825 486.311L279.292 476.839Z" fill="black"/>
<path d="M284.048 391.883L279.32 400.135L312.386 419.081L317.114 410.829L284.048 391.883Z" fill="black"/>
<path d="M171.77 568.675L162.314 585.178L170.581 589.914L180.037 573.412L171.77 568.675Z" fill="black"/>
<path d="M375.064 213.869L365.608 230.371L357.342 225.635L347.886 242.138L339.62 237.401L330.164 253.904L321.898 249.167L312.442 265.67L304.176 260.934L313.631 244.431L321.898 249.167L331.353 232.665L339.62 237.401L349.075 220.899L357.342 225.635L366.798 209.132L375.064 213.869Z" fill="black"/>
<path d="M172.959 547.437L163.504 563.939L171.77 568.676L181.226 552.173L172.959 547.437Z" fill="black"/>
<path d="M301.798 303.411L297.07 311.662L305.337 316.399L310.065 308.147L301.798 303.411Z" fill="black"/>
<path d="M216.698 451.936L211.971 460.188L220.237 464.924L224.965 456.673L216.698 451.936Z" fill="black"/>
<path d="M174.149 526.197L164.693 542.699L172.96 547.436L182.415 530.933L174.149 526.197Z" fill="black"/>
<path d="M175.336 504.958L165.881 521.461L174.147 526.197L183.603 509.695L175.336 504.958Z" fill="black"/>
<path d="M275.81 310.442L271.082 318.693L279.349 323.43L284.076 315.178L275.81 310.442Z" fill="black"/>
<path d="M209.62 425.96L204.893 434.211L213.159 438.947L217.887 430.696L209.62 425.96Z" fill="black"/>
<path d="M176.526 483.72L167.07 500.223L175.337 504.959L184.792 488.456L176.526 483.72Z" fill="black"/>
<path d="M201.382 344.519L196.654 352.771L188.388 348.034L183.66 356.285L175.393 351.549L180.121 343.298L171.855 338.561L176.583 330.31L184.849 335.046L189.577 326.795L197.843 331.531L193.115 339.783L201.382 344.519Z" fill="black"/>
<path d="M255.767 211.276L236.855 244.281L245.122 249.018L264.033 216.012L255.767 211.276Z" fill="black"/>
<path d="M128.116 434.061L109.205 467.066L117.472 471.803L136.383 438.798L128.116 434.061Z" fill="black"/>
<path d="M197.901 178.12L188.445 194.623L196.712 199.36L206.167 182.857L197.901 178.12Z" fill="black"/>
<path d="M7.62939 452.706L-1.82617 469.209L6.44031 473.945L15.8959 457.443L7.62939 452.706Z" fill="black"/>
<path d="M25.3521 440.941L15.8965 457.443L24.163 462.18L33.6185 445.677L25.3521 440.941Z" fill="black"/>
<path d="M43.0728 429.175L33.6172 445.678L41.8837 450.414L51.3392 433.912L43.0728 429.175Z" fill="black"/>
<path d="M60.7954 417.409L51.3398 433.912L59.6063 438.649L69.0619 422.146L60.7954 417.409Z" fill="black"/>
<path d="M199.09 156.88L189.635 173.383L197.901 178.119L207.357 161.617L199.09 156.88Z" fill="black"/>
<path d="M156.54 231.143L151.812 239.395L160.079 244.131L164.807 235.88L156.54 231.143Z" fill="black"/>
<path d="M80.8958 363.165L76.168 371.416L84.4345 376.152L89.1622 367.901L80.8958 363.165Z" fill="black"/>
<path d="M200.28 135.642L190.824 152.145L199.091 156.881L208.546 140.378L200.28 135.642Z" fill="black"/>
<path d="M201.469 114.404L192.014 130.906L200.28 135.643L209.736 119.14L201.469 114.404Z" fill="black"/>
<path d="M149.462 205.167L144.734 213.418L153.001 218.154L157.729 209.903L149.462 205.167Z" fill="black"/>
<path d="M54.9075 370.194L50.1797 378.445L58.4462 383.182L63.174 374.93L54.9075 370.194Z" fill="black"/>
<path d="M60.8528 263.999L56.125 272.25L89.191 291.196L93.9187 282.945L60.8528 263.999Z" fill="black"/>
<path d="M82.1418 188.514L77.4141 196.766L93.947 206.239L98.6748 197.987L82.1418 188.514Z" fill="black"/>
<path d="M23.0313 330.009L18.3035 338.261L1.77056 328.788L-2.95723 337.039L-19.4902 327.566L-24.218 335.818L-40.751 326.345L-45.4787 334.596L-62.0117 325.123L-57.2839 316.872L-40.751 326.345L-36.0232 318.093L-19.4902 327.566L-14.7624 319.315L1.77056 328.788L6.49834 320.537L23.0313 330.009Z" fill="black"/>
<path d="M70.3372 170.79L65.6094 179.041L82.1423 188.514L86.8701 180.263L70.3372 170.79Z" fill="black"/>
<path d="M58.5325 153.067L53.8047 161.318L70.3377 170.791L75.0654 162.54L58.5325 153.067Z" fill="black"/>
<path d="M46.7258 135.342L41.998 143.594L58.531 153.067L63.2588 144.815L46.7258 135.342Z" fill="black"/>
</g>
<defs>
<clipPath id="clip0_2346_8604">
<rect width="485" height="524" fill="white" transform="translate(-161.268 421.695) rotate(-60.1885)"/>
</clipPath>
</defs>
</svg>
