<svg width="406" height="372" viewBox="0 0 406 372" fill="none" xmlns="http://www.w3.org/2000/svg">
<rect x="104.428" y="364.766" width="8.99033" height="8.99033" transform="rotate(71.2923 104.428 364.766)" fill="black"/>
<rect x="110.059" y="353.365" width="8.99033" height="8.99033" transform="rotate(71.2923 110.059 353.365)" fill="black"/>
<rect x="115.691" y="341.967" width="8.99033" height="8.99033" transform="rotate(71.2923 115.691 341.967)" fill="black"/>
<rect x="121.322" y="330.568" width="8.99033" height="8.99033" transform="rotate(71.2923 121.322 330.568)" fill="black"/>
<rect x="126.955" y="319.17" width="8.99033" height="8.99033" transform="rotate(71.2923 126.955 319.17)" fill="black"/>
<rect x="132.586" y="307.77" width="8.99033" height="8.99033" transform="rotate(71.2923 132.586 307.77)" fill="black"/>
<rect x="138.219" y="296.371" width="8.99033" height="8.99033" transform="rotate(71.2923 138.219 296.371)" fill="black"/>
<rect x="143.85" y="284.973" width="8.99033" height="8.99033" transform="rotate(71.2923 143.85 284.973)" fill="black"/>
<rect x="149.482" y="273.574" width="8.99034" height="8.99034" transform="rotate(71.2923 149.482 273.574)" fill="black"/>
<rect x="155.113" y="262.174" width="8.99033" height="8.99033" transform="rotate(71.2923 155.113 262.174)" fill="black"/>
<rect x="160.746" y="250.775" width="8.99034" height="8.99034" transform="rotate(71.2923 160.746 250.775)" fill="black"/>
<rect x="166.377" y="239.377" width="8.99033" height="8.99033" transform="rotate(71.2923 166.377 239.377)" fill="black"/>
<rect x="172.01" y="227.979" width="8.99033" height="8.99033" transform="rotate(71.2923 172.01 227.979)" fill="black"/>
<rect x="177.641" y="216.578" width="8.99034" height="8.99034" transform="rotate(71.2923 177.641 216.578)" fill="black"/>
<rect x="183.271" y="205.18" width="8.99033" height="8.99033" transform="rotate(71.2923 183.271 205.18)" fill="black"/>
<rect x="188.904" y="193.781" width="8.99034" height="8.99034" transform="rotate(71.2923 188.904 193.781)" fill="black"/>
<rect x="194.535" y="182.383" width="8.99033" height="8.99033" transform="rotate(71.2923 194.535 182.383)" fill="black"/>
<rect x="200.168" y="170.984" width="8.99033" height="8.99033" transform="rotate(71.2923 200.168 170.984)" fill="black"/>
<rect x="205.799" y="159.584" width="8.99034" height="8.99034" transform="rotate(71.2923 205.799 159.584)" fill="black"/>
<rect x="211.432" y="148.186" width="8.99034" height="8.99034" transform="rotate(71.2923 211.432 148.186)" fill="black"/>
<rect x="217.062" y="136.787" width="8.99033" height="8.99033" transform="rotate(71.2923 217.062 136.787)" fill="black"/>
<rect x="222.695" y="125.389" width="8.99033" height="8.99033" transform="rotate(71.2923 222.695 125.389)" fill="black"/>
<rect x="228.326" y="113.988" width="8.99033" height="8.99033" transform="rotate(71.2923 228.326 113.988)" fill="black"/>
<rect x="233.959" y="102.59" width="8.99033" height="8.99033" transform="rotate(71.2923 233.959 102.59)" fill="black"/>
<rect x="239.59" y="91.1914" width="8.99033" height="8.99033" transform="rotate(71.2923 239.59 91.1914)" fill="black"/>
<rect x="245.223" y="79.793" width="8.99036" height="8.99036" transform="rotate(71.2923 245.223 79.793)" fill="black"/>
<rect x="250.854" y="68.3926" width="8.99033" height="8.99033" transform="rotate(71.2923 250.854 68.3926)" fill="black"/>
<rect x="256.486" y="56.9941" width="8.99033" height="8.99033" transform="rotate(71.2923 256.486 56.9941)" fill="black"/>
<rect x="262.117" y="45.5957" width="8.99033" height="8.99033" transform="rotate(71.2923 262.117 45.5957)" fill="black"/>
<rect x="267.75" y="34.1973" width="8.99033" height="8.99033" transform="rotate(71.2923 267.75 34.1973)" fill="black"/>
<rect x="273.381" y="22.7969" width="8.99036" height="8.99036" transform="rotate(71.2923 273.381 22.7969)" fill="black"/>
<rect x="279.014" y="11.3984" width="8.99033" height="8.99033" transform="rotate(71.2923 279.014 11.3984)" fill="black"/>
<rect x="284.645" width="8.99033" height="8.99033" transform="rotate(71.2923 284.645 0)" fill="black"/>
<rect width="8.99033" height="8.99033" transform="matrix(-0.32074 -0.947167 -0.947167 0.32074 6.79297 160.531)" fill="black"/>
<rect width="8.99036" height="8.99033" transform="matrix(-0.32074 -0.947167 -0.947167 0.32074 18.1914 166.164)" fill="black"/>
<rect width="8.99033" height="8.99033" transform="matrix(-0.32074 -0.947167 -0.947167 0.32074 29.5898 171.795)" fill="black"/>
<rect width="8.99033" height="8.99033" transform="matrix(-0.32074 -0.947167 -0.947167 0.32074 40.9883 177.428)" fill="black"/>
<rect width="8.99033" height="8.99033" transform="matrix(-0.32074 -0.947167 -0.947167 0.32074 52.3887 183.059)" fill="black"/>
<rect width="8.99033" height="8.99033" transform="matrix(-0.32074 -0.947167 -0.947167 0.32074 63.7871 188.691)" fill="black"/>
<rect width="8.99033" height="8.99033" transform="matrix(-0.32074 -0.947167 -0.947167 0.32074 75.1855 194.322)" fill="black"/>
<rect width="8.99034" height="8.99033" transform="matrix(-0.32074 -0.947167 -0.947167 0.32074 86.584 199.955)" fill="black"/>
<rect width="8.99034" height="8.99033" transform="matrix(-0.32074 -0.947167 -0.947167 0.32074 97.9844 205.586)" fill="black"/>
<rect width="8.99033" height="8.99033" transform="matrix(-0.32074 -0.947167 -0.947167 0.32074 109.383 211.219)" fill="black"/>
<rect width="8.99033" height="8.99033" transform="matrix(-0.32074 -0.947167 -0.947167 0.32074 120.781 216.85)" fill="black"/>
<rect width="8.99034" height="8.99034" transform="matrix(-0.32074 -0.947167 -0.947167 0.32074 132.18 222.482)" fill="black"/>
<rect width="8.99033" height="8.99033" transform="matrix(-0.32074 -0.947167 -0.947167 0.32074 143.58 228.113)" fill="black"/>
<rect width="8.99034" height="8.99034" transform="matrix(-0.32074 -0.947167 -0.947167 0.32074 154.979 233.746)" fill="black"/>
<rect width="8.99033" height="8.99033" transform="matrix(-0.32074 -0.947167 -0.947167 0.32074 166.377 239.377)" fill="black"/>
<rect width="8.99033" height="8.99033" transform="matrix(-0.32074 -0.947167 -0.947167 0.32074 177.775 245.01)" fill="black"/>
<rect width="8.99034" height="8.99034" transform="matrix(-0.32074 -0.947167 -0.947167 0.32074 189.176 250.641)" fill="black"/>
<rect width="8.99033" height="8.99033" transform="matrix(-0.32074 -0.947167 -0.947167 0.32074 200.574 256.271)" fill="black"/>
<rect width="8.99034" height="8.99034" transform="matrix(-0.32074 -0.947167 -0.947167 0.32074 211.973 261.904)" fill="black"/>
<rect width="8.99033" height="8.99033" transform="matrix(-0.32074 -0.947167 -0.947167 0.32074 223.371 267.535)" fill="black"/>
<rect width="8.99033" height="8.99033" transform="matrix(-0.32074 -0.947167 -0.947167 0.32074 234.77 273.168)" fill="black"/>
<rect width="8.99033" height="8.99034" transform="matrix(-0.32074 -0.947167 -0.947167 0.32074 246.17 278.799)" fill="black"/>
<rect width="8.99033" height="8.99034" transform="matrix(-0.32074 -0.947167 -0.947167 0.32074 257.568 284.432)" fill="black"/>
<rect width="8.99033" height="8.99033" transform="matrix(-0.32074 -0.947167 -0.947167 0.32074 268.967 290.062)" fill="black"/>
<rect width="8.99033" height="8.99033" transform="matrix(-0.32074 -0.947167 -0.947167 0.32074 280.365 295.695)" fill="black"/>
<rect width="8.99033" height="8.99033" transform="matrix(-0.32074 -0.947167 -0.947167 0.32074 291.766 301.326)" fill="black"/>
<rect width="8.99033" height="8.99033" transform="matrix(-0.32074 -0.947167 -0.947167 0.32074 303.164 306.959)" fill="black"/>
<rect width="8.99033" height="8.99033" transform="matrix(-0.32074 -0.947167 -0.947167 0.32074 314.562 312.59)" fill="black"/>
<rect width="8.99033" height="8.99036" transform="matrix(-0.32074 -0.947167 -0.947167 0.32074 325.961 318.223)" fill="black"/>
<rect width="8.99033" height="8.99033" transform="matrix(-0.32074 -0.947167 -0.947167 0.32074 337.361 323.854)" fill="black"/>
<rect width="8.99033" height="8.99033" transform="matrix(-0.32074 -0.947167 -0.947167 0.32074 348.76 329.486)" fill="black"/>
<rect width="8.99033" height="8.99033" transform="matrix(-0.32074 -0.947167 -0.947167 0.32074 360.158 335.117)" fill="black"/>
<rect width="8.99033" height="8.99033" transform="matrix(-0.32074 -0.947167 -0.947167 0.32074 371.557 340.75)" fill="black"/>
<rect width="8.99033" height="8.99036" transform="matrix(-0.32074 -0.947167 -0.947167 0.32074 382.957 346.381)" fill="black"/>
<rect width="8.99033" height="8.99033" transform="matrix(-0.32074 -0.947167 -0.947167 0.32074 394.355 352.014)" fill="black"/>
<rect width="8.99033" height="8.99033" transform="matrix(-0.32074 -0.947167 -0.947167 0.32074 405.754 357.645)" fill="black"/>
</svg>
