<svg width="60" height="60" viewBox="0 0 60 60" fill="none" xmlns="http://www.w3.org/2000/svg">
<g id="_&#195;&#142;&#195;&#147;&#195;&#136;_1" clip-path="url(#clip0_1958_6076)">
<path id="Vector" d="M31.9664 41.8008H29.9997H28.0331V43.7674H26.0664V45.7341V47.7008H28.0331V49.6674H29.9997H31.9664V47.7008H33.9331V45.7341V43.7674H31.9664V41.8008Z" fill="#F70303"/>
<path id="Vector_2" d="M57.5333 22.1333V16.2333H55.5667V14.2667H53.6V10.3333H51.6333V8.36667H49.6667V6.4H45.7333V4.43333H43.7667V2.46667H37.8667V0.5H22.1333V2.46667H16.2333V4.43333H14.2667V6.4H10.3333V8.36667H8.36667V10.3333H6.4V14.2667H4.43333V16.2333H2.46667V22.1333H0.5V37.8667H2.46667V43.7667H4.43333V45.7333H6.4V49.6667H8.36667V51.6333H10.3333V53.6H14.2667V55.5667H16.2333V57.5333H22.1333V59.5H37.8667V57.5333H43.7667V55.5667H45.7333V53.6H49.6667V51.6333H51.6333V49.6667H53.6V45.7333H55.5667V43.7667H57.5333V37.8667H59.5V22.1333H57.5333ZM57.5333 30V31.9667H55.5667V39.8333H53.6V43.7667H51.6333V47.7H49.6667V49.6667H47.7V51.6333H43.7667V53.6H39.8333V55.5667H31.9667V57.5333H28.0333V55.5667H20.1667V53.6H16.2333V51.6333H14.2667V49.6667H10.3333V45.7333H8.36667V43.7667H6.4V39.8333H4.43333V20.1667H6.4V16.2333H8.36667V14.2667H10.3333V12.3H12.3V10.3333H14.2667V8.36667H16.2333V6.4H20.1667V4.43333H39.8333V6.4H43.7667V8.36667H45.7333V10.3333H49.6667V14.2667H51.6333V16.2333H53.6V20.1667H55.5667V28.0333H57.5333V30Z" fill="#F70303"/>
<path id="Vector_3" d="M31.9664 10.334H29.9997H28.0331V12.3007H26.0664V14.2673V16.234V18.2007V20.1673V22.134V24.1007V26.0673V28.034V30.0007V31.9673V33.934V35.9007V37.8673H28.0331H29.9997H31.9664H33.9331V35.9007V33.934V31.9673V30.0007V28.034V26.0673V24.1007V22.134V20.1673V18.2007V16.234V14.2673V12.3007H31.9664V10.334Z" fill="#F70303"/>
</g>
<defs>
<clipPath id="clip0_1958_6076">
<rect width="59" height="59" fill="white" transform="translate(0.5 0.5)"/>
</clipPath>
</defs>
</svg>
