<svg width="800" height="800" viewBox="0 0 800 800" fill="none" xmlns="http://www.w3.org/2000/svg">
<path d="M441.221 709.845H449.399C449.484 707.948 449.625 706.338 449.625 704.715C449.625 649.937 449.625 595.16 449.625 540.397C449.625 535.598 452.21 533.596 457.379 534.391C457.436 535.583 457.521 536.848 457.549 538.112C457.577 539.305 457.549 540.483 457.549 542.093C460.261 542.251 462.761 542.395 465.318 542.538C465.685 545.24 465.233 548.559 466.631 550.082C467.888 551.448 471.222 550.83 474.033 551.131V558.949H481.42C481.801 559.523 482.013 559.71 482.041 559.911C482.366 562.34 481.83 565.659 483.186 566.952C484.57 568.274 487.79 567.599 490.573 567.815C490.573 569.295 490.559 570.574 490.573 571.867C490.601 573.031 490.672 574.195 490.742 575.574C493.369 575.689 495.771 575.804 498.228 575.905C498.596 578.707 498.101 582.026 499.514 583.564C500.757 584.915 504.104 584.282 506.732 584.555V600.434C505.559 600.52 504.528 600.52 503.511 600.692C500.008 601.253 498.398 599.945 499.019 596.223C499.514 593.278 498.299 592.028 495.333 592.387C493.963 592.559 492.55 592.415 490.982 592.415C490.855 591.553 490.7 591.007 490.686 590.447C490.502 584.627 490.502 584.699 484.753 583.837C483.948 583.722 482.889 582.63 482.677 581.782C482.183 579.885 482.818 577.083 481.731 576.106C480.558 575.057 477.945 575.675 475.968 575.56C475.615 575.545 475.276 575.474 474.739 575.416C474.612 574.928 474.372 574.396 474.329 573.835C474.174 571.824 474.781 569.165 473.75 567.987C472.776 566.881 470.035 567.527 468.171 567.024C467.352 566.809 466.335 565.717 466.193 564.883C465.883 563.159 466.095 561.334 466.095 559.236H457.563C457.563 560.587 457.563 561.88 457.563 563.159C457.563 607.762 457.563 652.38 457.563 696.984C457.563 701.453 457.563 701.582 462.295 701.482C464.795 701.438 465.826 702.042 465.826 704.844C465.727 727.807 465.77 750.77 465.755 773.732C465.755 774.551 465.6 775.356 465.501 776.376H457.761V751.934C456.857 751.718 456.32 751.502 455.769 751.459C451.683 751.239 449.639 749.103 449.639 745.05C449.639 744.691 449.639 744.332 449.639 743.973C449.568 741.228 450.458 737.765 449.145 735.954C448.001 734.374 444.385 734.647 441.334 733.986V709.73L441.221 709.845Z" fill="black"/>
<path d="M325.893 249.267V257.286H334.382V252.932C334.382 225.543 334.382 198.154 334.382 170.766C334.382 164.616 334.735 165.09 328.873 165.104C328.082 165.104 327.291 164.96 326.302 164.86V23.5339C326.599 23.3471 326.797 23.1459 326.994 23.1172C331.675 22.6861 334.015 24.8032 334.015 29.4686C334.015 34.3687 334.226 39.2831 333.944 44.1832C333.746 47.6463 335.088 48.6665 338.21 48.2929C339.453 48.1348 340.724 48.2642 342.292 48.2642V73.0375C345.074 73.1668 347.574 73.2818 350.413 73.3967C350.413 81.2282 350.456 88.7436 350.329 96.2446C350.329 96.8768 349.142 97.9114 348.394 98.0264C346.586 98.2851 344.707 98.1126 342.518 98.1126V81.6593C340.47 81.5587 338.76 81.5444 337.065 81.3863C334.777 81.1851 333.93 82.1479 333.972 84.4902C334.085 89.8644 334 95.2531 334 100.642C334 114.997 334 129.352 334 143.693C334 147.017 335.667 148.704 339.001 148.751C339.933 148.766 340.865 148.852 342.08 148.924V282.131H334.721C334.438 279.473 335.003 276.182 333.676 274.817C332.334 273.452 329.099 274.026 326.486 273.739C326.401 273.466 326.175 273.049 326.133 272.604C325.963 270.477 326.543 267.819 325.483 266.396C324.678 265.304 321.754 266.022 319.918 265.462C319.07 265.203 318.025 263.853 317.969 262.933C317.743 259.24 317.926 255.518 317.856 251.811C317.827 250.029 318.407 249.124 320.285 249.21C322.023 249.296 323.76 249.224 325.893 249.224V249.267Z" fill="black"/>
<path d="M243.403 341.837H259.703C259.76 342.153 259.915 342.713 259.943 343.274C260.155 349.137 260.155 349.093 265.932 349.855C266.723 349.956 268.009 350.904 268.023 351.493C268.192 356.235 268.122 360.977 268.122 366.136C266.13 366.136 264.633 366.136 263.122 366.136C211.524 366.136 159.912 366.136 108.314 366.136C103.822 366.136 101.83 369.154 103.667 373.464C103.963 374.169 105.517 374.657 106.506 374.671C112.735 374.786 118.964 374.873 125.193 374.671C128.131 374.571 128.597 375.965 128.328 378.336C128.102 380.333 129.388 383.049 125.447 382.977C116.28 382.805 107.113 382.92 97.946 382.905C97.268 382.905 96.5759 382.747 95.573 382.632V374.7H70.8828C70.8828 372.66 70.784 371.022 70.9111 369.412C71.1088 366.912 70.0918 366.064 67.6482 366.093C59.8937 366.208 52.1251 366.136 44.3706 366.136C37.2516 366.136 36.955 365.734 38.537 358.06H243.474V341.75L243.417 341.851L243.403 341.837Z" fill="black"/>
<path d="M540.011 634.504C540.604 634.504 541.183 634.504 541.777 634.49C547.568 634.476 547.469 634.49 548.161 640.324C548.274 641.244 549.63 642.494 550.605 642.724C552.257 643.126 554.079 642.839 555.972 642.839C556.128 643.6 556.325 644.161 556.339 644.707C556.579 650.713 556.579 650.627 562.272 651.374C563.119 651.489 564.263 652.74 564.461 653.645C564.814 655.341 564.56 657.18 564.56 659.22H572.837C572.922 658.286 573.077 657.252 573.077 656.231C573.077 650.325 573.402 650.785 568.063 650.958C565.605 651.03 564.701 650.211 564.828 647.681C564.998 644.348 564.744 640.985 564.913 637.637C565.04 634.979 564.066 634.045 561.453 634.131C556.142 634.289 556.523 634.663 556.509 629.145C556.509 625.452 556.509 621.759 556.509 617.735C555.252 617.606 554.263 617.419 553.26 617.405C548.062 617.361 548.444 617.879 548.429 612.231C548.429 609.487 548.302 606.728 548.458 603.983C548.599 601.512 547.751 600.42 545.251 600.649C543.74 600.793 542.215 600.678 540.209 600.678V584.412C538.994 584.211 538.217 583.981 537.44 583.966C531.706 583.88 531.974 584.915 531.96 578.362C531.96 575.732 531.847 573.088 531.988 570.473C532.115 568.002 531.225 566.924 528.754 567.139C527.256 567.269 525.731 567.168 523.951 567.168V550.686C526.451 550.916 529.686 550.284 530.929 551.606C532.257 553 531.677 556.247 531.96 558.949H539.799V575.718H548.048C548.048 580.302 548.274 584.354 547.977 588.378C547.709 591.956 549.065 593.134 552.37 592.66C553.5 592.502 554.687 592.631 556.269 592.631V609.171H564.546C564.546 613.41 564.546 617.29 564.546 621.184C564.546 624.374 566.137 625.988 569.32 626.026C570.351 626.026 571.368 626.141 572.837 626.242V642.825H580.987V659.436H589.165V676.191H597.428C597.428 680.89 597.626 685.057 597.358 689.196C597.146 692.443 598.332 693.55 601.369 693.147C602.626 692.975 603.926 693.118 605.324 693.118V710.017L605.423 709.945C603.092 709.802 600.762 709.672 598.022 709.5C597.937 707.862 597.697 706.224 597.824 704.629C598.05 701.941 596.991 700.907 594.392 701.165C592.908 701.309 591.397 701.194 589.504 701.194V693.55C588.826 693.262 588.53 693.032 588.205 693.003C586.114 692.831 583.501 693.406 582.089 692.342C581.03 691.538 581.75 688.563 581.213 686.681C580.959 685.776 579.716 684.755 578.77 684.568C577.103 684.224 575.309 684.468 573.261 684.468C573.12 681.651 573.007 679.194 572.865 676.335C570.281 676.191 567.78 676.062 565.238 675.918C564.871 673.188 565.351 669.868 563.939 668.359C562.681 666.994 559.348 667.612 556.65 667.325C556.537 664.825 556.41 662.367 556.283 659.522H548.768C548.458 656.605 549.009 653.3 547.653 651.762C546.438 650.383 543.09 650.943 540.096 650.57V634.433L539.983 634.548L540.011 634.504Z" fill="black"/>
<path d="M169.078 508.654H136.421C136.421 510.364 136.28 511.873 136.45 513.339C136.803 516.285 135.489 516.96 132.82 516.931C121.774 516.816 110.728 516.888 99.6828 516.888C98.4116 516.888 97.1545 516.888 95.4595 516.888V525.136H63.043C62.8877 524.792 62.6617 524.49 62.6334 524.159C62.2756 519.561 64.3378 517.262 68.8201 517.262C69.0602 517.262 69.2862 517.262 69.5263 517.262C72.3372 517.219 75.8401 518.167 77.7611 516.816C79.3713 515.681 79.1171 511.844 79.7668 508.87H95.2476C95.3889 506.068 95.5301 503.524 95.6855 500.521H111.873V492.1C113.822 492.1 115.432 491.986 117 492.129C119.401 492.345 120.404 491.497 120.305 488.925C120.093 483.421 119.853 483.752 125.461 483.752C128.158 483.752 130.87 483.637 133.568 483.78C136.054 483.924 136.859 482.89 136.803 480.432C136.676 474.871 136.111 475.259 141.888 475.245C145.504 475.245 149.12 475.245 152.736 475.245C152.947 474.397 153.117 473.952 153.159 473.506C153.498 469.186 155.754 467.025 159.925 467.025C160.984 467.025 162.044 467.025 163.103 467.025C167.821 467.025 169.756 469.674 168.909 474.972H161.366C161.225 477.875 161.097 480.432 160.942 483.436C156.804 483.436 152.834 483.608 148.88 483.378C145.8 483.206 144.176 483.982 144.727 487.473C144.925 488.752 144.755 490.074 144.755 491.813H128.526C128.37 494.658 128.243 497.101 128.102 499.946C126.294 500.033 124.585 500.219 122.876 500.148C120.799 500.061 119.994 500.837 119.91 503.036C119.698 509.2 120.22 509.603 128.469 508.367V500.751C129.995 500.665 131.238 500.536 132.481 500.536C143.06 500.521 153.64 500.536 164.205 500.536C167.746 500.536 169.455 502.384 169.332 506.082C169.304 506.786 169.191 507.476 169.05 508.669L169.078 508.654Z" fill="black"/>
<path d="M672.304 442.195C672.121 439.479 671.951 436.778 671.725 433.473H682.629C685.92 433.473 689.226 433.286 692.503 433.53C695.737 433.774 696.684 432.639 696.754 429.32C696.825 425.684 695.822 424.607 692.206 424.736C684.098 425.023 675.977 424.822 667.869 424.822C666.612 424.822 665.355 424.822 663.956 424.822C663.829 423.716 663.688 423.026 663.688 422.336C663.66 416.042 664.521 416.387 657.77 416.387C650.128 416.387 642.487 416.229 634.845 416.459C631.596 416.559 630.311 415.554 630.749 412.263C630.904 411.113 630.777 409.906 630.777 408.498H671.301C671.414 409.03 671.626 409.605 671.654 410.165C671.871 414.562 674.202 416.761 678.646 416.761C687.093 416.761 695.54 416.761 704.41 416.761V424.836H737.476V433.487C740.103 433.487 742.293 433.487 744.482 433.487C748.945 433.487 753.423 433.487 757.886 433.487C761.7 433.487 763.875 437.123 761.898 440.586C761.46 441.347 759.709 441.606 758.55 441.606C741.389 441.663 724.213 441.649 707.051 441.649C696.698 441.649 686.358 441.635 676.005 441.678C674.748 441.678 673.491 441.979 672.234 442.138L672.318 442.209L672.304 442.195Z" fill="black"/>
<path d="M326.387 693.449C326.232 697.242 326.048 701.036 325.921 704.815C325.865 706.338 325.921 707.847 325.921 709.687H317.588C317.588 714.486 317.588 718.984 317.588 723.481C317.588 725.752 317.39 728.051 317.63 730.293C318.011 733.756 316.768 735.207 313.336 734.647C310.342 734.158 309.084 735.279 309.31 738.555C309.579 742.593 309.381 746.674 309.381 751.373C307.686 751.373 306.217 751.244 304.762 751.402C302.05 751.704 301.386 750.482 301.401 747.881C301.499 734 301.443 720.133 301.443 706.252C301.443 702.071 301.443 697.903 301.443 693.305C304.169 693.147 306.655 693.018 309.536 692.845C309.536 691.178 309.536 689.77 309.536 688.362C309.536 668.862 309.607 649.363 309.466 629.863C309.438 626.659 310.342 625.796 313.435 625.839C316.472 625.883 317.715 626.443 317.672 629.949C317.503 649.205 317.588 668.474 317.588 687.73C317.588 693.018 317.588 692.989 322.644 693.075C323.916 693.09 325.201 693.348 326.472 693.506L326.402 693.42L326.387 693.449Z" fill="black"/>
<path d="M457.309 123.001C457.436 116.089 457.733 109.177 457.634 102.279C457.591 99.2762 458.481 98.3422 461.405 98.4572C466.038 98.644 466.052 98.4572 466.052 93.8158C466.052 90.9418 466.193 88.0679 466.01 85.2083C465.854 82.5786 466.73 81.6302 469.4 81.6734C474.259 81.7596 474.259 81.6159 474.273 76.5865C474.273 70.0339 474.273 63.4813 474.273 56.5982H482.366V40.1162H490.319V81.1992C489.076 81.271 487.79 81.5728 486.59 81.386C482.861 80.8255 482.112 82.5499 482.14 86.0561C482.296 104.708 482.211 123.374 482.211 142.026C482.211 149.182 482.084 149.283 474.4 147.946V106.677C471.886 106.677 469.668 106.447 467.564 106.806C466.829 106.935 465.883 108.53 465.84 109.479C465.657 113.876 465.756 118.287 465.756 123.36C462.69 123.202 459.964 123.058 457.238 122.914L457.309 123.001Z" fill="black"/>
<path d="M259.492 282.72C259.732 283.41 259.788 283.51 259.803 283.625C260.029 285.968 259.435 289.531 260.636 290.35C262.458 291.6 265.551 291.011 268.108 291.04C270.693 291.083 273.998 291.888 275.636 290.595C277.091 289.445 276.696 285.881 277.218 282.72C278.617 282.72 280.326 282.792 282.021 282.706C284.055 282.591 284.676 283.582 284.634 285.522C284.549 288.985 284.775 292.463 284.563 295.926C284.394 298.828 285.51 299.834 288.25 299.533C289.634 299.374 291.047 299.504 292.699 299.504V315.612H285.171C285.044 312.954 284.916 310.497 284.789 307.752H268.885C268.729 306.574 268.503 305.668 268.489 304.749C268.447 298.9 269.224 299.145 262.952 299.145C260.368 299.145 257.769 299.001 255.198 299.173C252.684 299.346 251.921 298.297 251.992 295.84C252.147 290.609 252.585 290.896 247.005 290.882C243.375 290.882 239.759 290.882 235.579 290.882C235.579 288.885 235.466 287.261 235.607 285.637C235.819 283.079 234.703 282.26 232.302 282.361C228.898 282.504 225.479 282.289 222.075 282.433C219.73 282.533 218.996 281.585 219.053 279.286C219.208 273.452 219.476 274.098 213.6 274.055C210.097 274.041 206.594 274.055 202.908 274.055C202.795 272.747 202.654 271.828 202.639 270.908C202.611 265.175 203.077 265.62 197.173 265.606C194.701 265.606 192.215 265.448 189.772 265.649C187.06 265.864 185.803 264.988 186.17 262.071C186.339 260.691 186.198 259.283 186.198 257.688H210.154C210.295 258.09 210.493 258.406 210.521 258.737C210.775 263.575 213.36 265.994 218.276 265.994C221.058 265.994 223.855 265.994 226.906 265.994C227.061 268.882 227.188 271.339 227.344 274.213H242.98C243.305 274.845 243.488 275.047 243.503 275.248C243.813 280.229 246.445 282.72 251.398 282.72C254.082 282.72 256.766 282.72 259.52 282.72H259.492Z" fill="black"/>
<path d="M672.218 442.137C672.049 442.568 671.752 442.971 671.724 443.416C671.366 447.746 669.017 449.911 664.676 449.911C635.889 449.911 607.089 449.911 578.302 449.911C572.243 449.911 572.935 449.466 572.878 455.199C572.878 456.133 572.737 457.067 572.638 458.332H548.315C548.16 461.091 548.019 463.534 547.863 466.307H532.213C532.072 463.821 531.931 461.364 531.775 458.619C529.12 458.49 526.606 458.375 523.922 458.245V450.285C527.382 450.285 530.645 450.285 533.894 450.285C542.821 450.285 551.762 450.17 560.689 450.357C563.824 450.414 565.378 449.624 564.912 446.189C564.743 444.925 564.884 443.631 564.884 442.08C566.423 441.993 567.553 441.878 568.697 441.878C601.961 441.878 635.211 441.878 668.475 441.878C669.761 441.878 671.032 442.094 672.331 442.223L672.261 442.151L672.218 442.137Z" fill="black"/>
<path d="M655.185 574.985V567.168H631.031C630.876 564.366 630.735 561.909 630.565 559.035H614.957C614.632 558.287 614.392 557.971 614.364 557.641C613.978 553.062 616.049 550.772 620.579 550.772C626.441 550.772 632.302 550.772 638.574 550.772C638.701 553.56 638.828 556.089 638.955 558.819H654.874C656.442 555.945 652.6 549.953 660.086 550.643C666.569 551.232 661.456 556.448 664.549 558.848H679.197C679.465 559.696 679.748 560.227 679.776 560.773C680.068 564.998 682.361 567.268 686.655 567.585C686.994 567.613 687.318 567.757 688.039 567.944V575.632H695.977C696.09 577.413 696.387 578.807 696.217 580.144C695.765 583.621 697.333 584.526 700.455 584.297C703.265 584.081 706.104 584.469 708.901 584.196C712.108 583.894 713.181 585.187 712.786 588.277C712.63 589.441 712.757 590.634 712.757 592.114H688.745C688.604 591.855 688.392 591.668 688.378 591.467C688.029 586.447 685.294 583.937 680.171 583.937C677.601 583.937 675.03 583.937 671.866 583.937C671.866 581.897 671.767 580.158 671.894 578.434C672.064 576.235 671.202 575.502 669.055 575.56C664.832 575.675 660.594 575.56 656.371 575.502C656.159 575.502 655.947 575.33 655.17 574.999L655.185 574.985Z" fill="black"/>
<path d="M704.083 290.868H688.377C688.25 293.612 688.137 296.069 688.009 298.843H671.893V290.939H648.008C647.627 290.379 647.514 290.293 647.499 290.192C646.369 282.993 646.567 282.749 653.672 282.749C661.314 282.749 668.955 282.648 676.597 282.806C679.365 282.864 680.297 281.93 680.227 279.099C680.114 274.271 680.255 274.256 684.93 274.256C693.165 274.256 701.4 274.17 709.62 274.299C712.149 274.342 713.194 273.725 713.123 270.922C713.01 266.022 713.166 266.022 718.166 266.022C720.511 266.022 722.898 266.238 725.214 265.965C728.647 265.563 729.621 267.114 729.226 270.261C729.098 271.31 729.212 272.388 729.212 273.883C726.485 274.012 723.985 274.127 721.471 274.242C721.302 274.989 721.146 275.435 721.118 275.894C720.826 280.253 718.486 282.433 714.098 282.433C713.858 282.433 713.632 282.433 713.392 282.433C710.694 282.533 707.36 281.7 705.524 283.022C704.098 284.042 704.55 287.764 704.083 290.868Z" fill="black"/>
<path d="M218.925 156.899H210.803V140.517C209.871 140.359 209.32 140.215 208.769 140.187C204.673 140.024 202.625 137.907 202.625 133.835C202.625 133.476 202.625 133.117 202.625 132.758C202.554 129.898 203.416 126.392 202.088 124.38C201.085 122.871 197.271 123.288 194.291 122.771V106.662H186.438V90.3813H194.079V98.299C196.904 98.4571 199.319 98.5864 202.045 98.7301C202.187 101.331 202.328 103.774 202.497 106.648H210.308C210.436 107.625 210.549 108.2 210.563 108.76C210.732 114.58 210.718 114.695 216.566 115.198C218.896 115.399 218.741 116.822 218.783 118.402C218.939 123.403 218.953 123.532 223.685 123.417C226.199 123.345 227.315 123.949 227.173 126.765C226.962 131.033 227.117 135.33 227.117 140.144C225.069 140.144 223.346 140.23 221.637 140.115C219.518 139.971 218.699 140.805 218.755 143.003C218.868 147.659 218.812 152.329 218.812 156.999L218.925 156.884V156.899Z" fill="black"/>
<path d="M474.287 257.444H482.352C482.494 254.685 482.621 252.228 482.762 249.483C485.361 249.354 487.762 249.224 490.474 249.081V241.177H506.675V248.52C504.133 248.851 500.884 248.319 499.373 249.727C498.017 250.992 498.596 254.383 498.285 257.214H490.757C490.63 260.102 490.502 262.66 490.389 265.218C487.649 265.577 484.4 265.074 482.875 266.497C481.547 267.747 482.155 271.138 481.858 274.084C477.861 274.084 473.892 274.314 469.965 274.012C466.49 273.753 465.205 275.032 465.742 278.438C466.236 281.571 464.993 282.49 461.871 282.548C458.411 282.619 457.592 281.47 457.62 278.079C457.775 258.838 457.69 239.597 457.69 220.341C457.69 218.947 457.69 217.554 457.69 215.958H465.544C465.614 217.439 465.727 218.818 465.727 220.198C465.742 234.179 465.869 248.175 465.643 262.143C465.586 265.979 467.408 265.994 470.163 266.051C472.974 266.109 474.781 265.692 474.287 262.229C474.089 260.835 474.259 259.398 474.259 257.429L474.287 257.444Z" fill="black"/>
<path d="M589.701 190.941V173.74H581.339C581.495 170.909 580.732 167.633 581.975 166.325C583.303 164.946 586.509 165.449 589.278 165.075C589.334 163.882 589.419 162.632 589.447 161.368C589.475 160.074 589.447 158.781 589.447 157.086H597.767C596.848 150.806 598.035 146.509 605.634 149.168C605.789 145.848 605.917 143.291 606.058 140.33C607.753 140.33 609.264 140.172 610.733 140.359C613.643 140.733 614.335 139.368 614.264 136.652C614.151 131.967 614.293 131.967 618.827 131.967C622.457 131.967 626.073 131.967 630.028 131.967V139.942C627.641 140.072 625.239 140.187 622.287 140.345V156.956H614.533C614.264 157.56 614.038 157.861 614.01 158.192C613.812 160.304 614.363 162.977 613.29 164.385C612.456 165.463 609.561 164.716 607.71 165.262C606.877 165.506 605.846 166.914 605.804 167.82C605.606 172.332 605.719 176.858 605.719 182.003C599.193 180.695 595.563 182.649 597.611 190.006C594.56 190.323 592.06 190.596 589.546 190.854L589.645 190.955L589.701 190.941Z" fill="black"/>
<path d="M425.161 207.365C425.005 214.018 424.822 220.686 424.709 227.339C424.638 232.067 424.681 232.239 419.92 232.11C417.081 232.038 416.163 233.058 416.319 235.86C416.502 239.079 416.262 242.312 416.389 245.545C416.488 247.902 415.881 249.037 413.268 248.965C407.561 248.779 408.197 248.448 408.154 254.483C408.14 258.047 408.154 261.596 408.154 264.945C407.589 265.261 407.406 265.462 407.194 265.476C402.542 265.869 400.216 263.737 400.216 259.082C400.216 256.093 401.092 252.515 399.764 250.331C398.79 248.707 394.905 248.894 391.883 248.161V224.005C389.086 223.876 386.685 223.775 384.029 223.66V199.333H391.713V215.269C392.561 215.484 392.999 215.656 393.451 215.7C397.726 216.044 399.863 218.439 399.863 222.884C399.863 227.67 400.019 232.455 399.807 237.225C399.68 240.085 400.64 241.177 403.423 240.861C404.892 240.703 406.403 240.832 408.324 240.832C408.324 236.119 408.479 231.851 408.267 227.583C408.126 224.781 408.96 223.804 411.813 223.905C416.672 224.077 416.686 223.905 416.686 218.875C416.686 215.182 416.686 211.504 416.686 207.466H425.274L425.175 207.351L425.161 207.365Z" fill="black"/>
<path d="M95.4605 223.589V215.614C92.7627 215.456 90.3614 215.326 87.6777 215.168V207.48H103.3C103.37 208.817 103.455 209.981 103.469 211.145C103.507 214.201 105.084 215.733 108.201 215.743C111.026 215.743 113.851 215.858 116.662 215.714C118.992 215.585 120.108 216.26 120.024 218.89C119.854 224.336 119.374 223.963 125.207 223.991C128.809 223.991 132.425 223.991 136.055 223.991C136.225 225.069 136.38 225.644 136.408 226.219C136.615 230.395 138.828 232.489 143.047 232.498C145.872 232.498 148.683 232.541 151.508 232.613C151.833 232.613 152.143 232.857 152.666 233.073V240.674C148.16 240.674 143.753 240.703 139.346 240.66C137.623 240.646 136.521 240.876 136.394 243.103C136.013 249.469 135.914 249.454 128.696 248.592C128.597 246.236 128.484 243.793 128.357 240.66C123.88 240.66 119.473 240.588 115.08 240.689C112.961 240.746 111.888 240.315 111.888 237.772C111.888 232.369 111.746 232.369 106.52 232.153C105.828 232.124 105.15 231.995 104.289 231.895C104.147 231.262 103.935 230.716 103.893 230.156C103.658 226.056 101.492 223.939 97.3956 223.804C96.9295 223.79 96.4775 223.704 95.4888 223.589H95.4605Z" fill="black"/>
<path d="M243.531 207.337H251.611V223.962H259.972C259.972 228.719 260.142 233.001 259.916 237.269C259.775 240.128 260.693 241.22 263.489 240.861C264.86 240.689 266.272 240.832 268.193 240.832C268.193 245.273 268.391 249.44 268.137 253.564C267.939 256.74 268.942 257.99 272.077 257.53C273.334 257.343 274.634 257.501 276.23 257.501V281.887C275.905 282.045 275.609 282.303 275.298 282.332C270.768 282.725 268.504 280.622 268.504 276.024C268.504 273.753 268.348 271.469 268.546 269.213C268.786 266.31 267.586 265.505 264.86 265.577C260.17 265.692 260.156 265.548 260.156 260.749C260.156 257.875 260.029 255.001 260.198 252.141C260.354 249.641 259.464 248.779 256.992 248.865C251.822 249.052 252.077 249.411 252.062 243.836C252.062 241.091 251.921 238.332 252.105 235.588C252.288 232.857 251.187 231.909 248.63 232.153C247.147 232.297 245.636 232.182 243.715 232.182V215.599C240.89 215.456 238.489 215.326 235.861 215.183V190.84H243.573V207.337H243.531Z" fill="black"/>
<path d="M178.174 625.911H186.197V609.257H194.248V601.282H202.017V617.146C199.517 617.275 197.017 617.419 194.39 617.563V625.969H202.37C202.158 628.828 202.836 632.119 201.565 633.427C200.237 634.792 197.003 634.217 194.192 634.548C194.192 635.913 194.192 637.192 194.192 638.471C194.192 639.663 194.192 640.841 194.192 642.092C193.584 642.293 193.175 642.537 192.737 642.566C190.646 642.738 188.033 642.149 186.621 643.212C185.562 644.017 186.225 646.977 185.717 648.874C185.505 649.679 184.347 650.699 183.513 650.8C177.962 651.533 177.962 651.461 177.722 657.194C177.694 657.769 177.581 658.358 177.454 659.364H169.685C169.558 660.715 169.417 661.634 169.389 662.568C169.247 667.986 169.163 668.158 163.739 667.512C162.877 667.411 161.507 666.161 161.465 665.371C161.224 661.448 161.422 657.482 161.337 653.544C161.281 651.145 162.806 651.231 164.388 651.26C170.067 651.36 169.685 651.576 169.699 645.785C169.699 642.911 169.516 640.022 169.812 637.192C169.911 636.214 171.168 634.72 172.058 634.591C177.736 633.772 177.75 633.887 177.934 628.211C177.948 627.621 178.061 627.032 178.188 625.883L178.174 625.911Z" fill="black"/>
<path d="M218.967 408.296H250.847C251.158 408.656 251.412 408.814 251.426 409.001C251.737 411.443 251.172 414.748 252.528 416.085C253.884 417.421 257.118 416.803 259.731 417.048V424.635H243.785C243.643 427.581 243.516 430.124 243.389 432.725C240.691 433.084 237.443 432.567 235.917 433.989C234.575 435.254 235.154 438.645 234.829 441.634C230.663 441.634 226.453 441.792 222.258 441.577C219.419 441.433 218.6 442.482 218.685 445.27C218.826 449.882 218.671 449.882 214.066 449.882C211.368 449.882 208.656 449.724 205.958 449.925C203.317 450.112 202.272 449.15 202.568 446.462C202.724 445.083 202.597 443.675 202.597 441.835H210.323C210.478 440.743 210.648 440.054 210.676 439.364C210.836 435.417 212.903 433.443 216.877 433.443C217.23 433.443 217.583 433.443 217.936 433.443C220.747 433.357 224.193 434.234 226.157 432.883C227.654 431.848 227.287 427.997 227.838 424.893H234.928C235.239 424.204 235.394 423.988 235.423 423.773C235.95 418.81 233.808 416.329 228.996 416.329C228.403 416.329 227.824 416.329 227.23 416.329C221.75 416.329 219.019 413.594 219.038 408.124L218.925 408.239L218.967 408.296Z" fill="black"/>
<path d="M268.927 491.9C268.673 491.066 268.574 490.836 268.546 490.606C268.188 485.816 265.655 483.421 260.946 483.421C260.833 483.421 260.706 483.421 260.593 483.421C257.91 483.522 254.59 482.717 252.726 484.039C251.271 485.074 251.638 488.738 251.13 491.583H211.213C211.043 491.325 210.93 491.239 210.916 491.138C210.304 486.204 212.399 483.738 217.202 483.738C224.73 483.738 232.245 483.594 239.773 483.809C242.81 483.896 244.18 483.091 243.714 479.843C243.516 478.464 243.686 477.041 243.686 475.245C247.57 475.245 251.073 475.245 254.576 475.245C263.503 475.245 272.444 475.389 281.371 475.173C284.563 475.101 284.733 476.696 284.662 479.125C284.591 481.453 285.015 483.694 281.413 483.493C276.399 483.22 276.357 482.947 276.583 488.163C276.71 491.167 275.763 492.331 272.825 491.943C271.582 491.77 270.297 491.914 268.941 491.914L268.927 491.9Z" fill="black"/>
<path d="M523.979 291.413C523.823 295.207 523.64 298.986 523.498 302.78C523.442 304.303 523.498 305.826 523.498 307.665H515.179C515.179 309.72 515.278 311.459 515.151 313.198C514.981 315.583 516.026 316.33 518.272 316.287C524.035 316.187 529.798 316.259 535.547 316.259C536.832 316.259 538.118 316.259 539.686 316.259V324.248H507.17C507.043 327.122 506.93 329.579 506.803 332.353H490.898V324.478H498.625C498.964 321.604 498.455 318.457 499.769 316.963C500.913 315.655 504.119 316.23 507.1 315.885C507.1 311.517 507.156 307.033 507.071 302.564C507.029 300.567 507.424 299.532 509.727 299.46C515.25 299.302 515.235 299.187 515.461 293.382C515.49 292.807 515.574 292.218 515.702 291.025C518.541 291.183 521.281 291.342 524.021 291.485L523.95 291.399L523.979 291.413Z" fill="black"/>
<path d="M301.71 542.151C301.597 540.8 301.456 539.88 301.442 538.946C301.329 534.075 301.343 533.874 306.117 534.06C309.097 534.175 309.874 532.882 309.507 530.267C309.012 526.732 310.029 524.72 313.956 525.482C317.473 526.157 318.264 524.246 317.869 521.214C317.516 518.455 318.278 517.047 321.442 517.19C326.047 517.392 326.047 517.19 326.089 512.621C326.089 511.457 326.188 510.293 326.259 508.957H333.801C333.872 510.25 333.999 511.514 334.013 512.779C334.027 523.657 334.013 534.549 334.013 545.427C334.013 548.828 332.342 550.49 328.999 550.413C328.194 550.399 327.403 550.284 326.089 550.183C326.089 545.815 325.863 541.533 326.16 537.294C326.414 533.601 324.394 533.658 321.824 533.629C319.126 533.586 317.346 533.83 317.501 537.394C317.713 542.136 317.487 542.151 312.727 542.165C309.111 542.165 305.481 542.165 301.724 542.165L301.71 542.151Z" fill="black"/>
<path d="M540.25 199.419C542.934 199.074 546.196 199.591 547.722 198.183C549.064 196.947 548.47 193.542 548.753 190.768C551.182 190.653 553.584 190.538 556.253 190.409C556.352 189.216 556.493 188.182 556.507 187.147C556.555 183.861 558.24 182.218 561.564 182.218C565.18 182.218 568.796 182.218 572.652 182.218V189.935C572.172 190.107 571.847 190.308 571.522 190.337C569.432 190.481 566.819 189.892 565.392 190.955C564.319 191.745 564.968 194.706 564.446 196.602C564.22 197.421 563.09 198.456 562.256 198.557C556.536 199.304 556.536 199.232 556.352 205.21C556.338 205.684 556.253 206.158 556.154 207.035H548.414C548.146 209.88 548.767 213.156 547.453 214.55C546.154 215.93 542.905 215.412 540.08 215.786V223.589H523.992V216.131C526.492 215.815 529.755 216.346 531.252 214.938C532.608 213.674 532.015 210.268 532.326 207.437H539.854C540.01 204.549 540.137 202.005 540.264 199.404L540.25 199.419Z" fill="black"/>
<path d="M384.087 542.567H391.715V567.067C392.816 567.24 393.607 567.47 394.384 567.484C400.034 567.599 399.85 566.406 399.85 573.088C399.85 579.382 399.85 585.69 399.85 592.157H391.799V575.675H375.768V551.189C378.324 550.829 381.573 551.318 383.07 549.895C384.398 548.631 383.805 545.24 384.073 542.581L384.087 542.567Z" fill="black"/>
<path d="M573.6 307.996C573.388 305.338 573.176 302.665 572.922 299.532H605.79V291.414H646.357C646.512 291.73 646.682 291.931 646.71 292.146C647.218 296.821 645.203 299.164 640.664 299.173C633.136 299.173 625.607 299.317 618.093 299.101C614.873 299.015 613.488 299.978 613.926 303.326C614.096 304.591 613.954 305.898 613.954 307.666C612.189 307.666 610.833 307.666 609.463 307.666C597.485 307.766 585.507 307.852 573.515 307.953L573.586 307.996H573.6Z" fill="black"/>
<path d="M318.137 550.944H325.609V625.609H318.137V550.944Z" fill="black"/>
<path d="M597.441 541.949H573.076C573.076 540.369 572.92 538.946 573.104 537.566C573.542 534.29 572.087 533.399 569.092 533.615C566.056 533.845 562.976 533.471 559.94 533.715C556.987 533.96 556.196 532.652 556.479 529.965C556.62 528.571 556.507 527.163 556.507 525.352H540.264V517.248C543.456 517.248 546.69 517.248 549.911 517.248C553.668 517.248 557.439 517.391 561.183 517.205C563.838 517.061 564.657 518.038 564.615 520.682C564.544 525.467 564.671 525.467 569.375 525.467C572.313 525.467 575.251 525.568 578.175 525.438C580.308 525.352 581.127 526.143 581.042 528.327C580.788 534.621 580.76 533.917 586.847 533.96C589.192 533.974 591.551 534.118 593.896 533.931C596.636 533.701 597.822 534.693 597.497 537.552C597.342 538.932 597.469 540.34 597.469 541.935L597.441 541.949Z" fill="black"/>
<path d="M507.114 517.463C506.351 517.19 506.04 516.989 505.701 516.96C499.02 516.299 499.048 516.299 499.02 509.301C499.02 506.556 499.839 503.065 498.512 501.312C497.339 499.76 493.695 500.133 490.898 499.616V492.402H506.972C506.972 493.997 507.1 495.636 506.944 497.245C506.718 499.731 507.65 500.651 510.136 500.564C514.444 500.406 518.767 500.521 523.287 500.521V508.654H515.179C515.179 512.003 515.179 515.049 515.179 518.11C515.179 522.291 515.009 526.487 515.221 530.654C515.419 534.577 512.764 533.5 510.73 533.686C508.441 533.888 506.916 533.543 507.071 530.511C507.297 526.128 507.128 521.731 507.128 517.463H507.114Z" fill="black"/>
<path d="M473.849 214.852C473.397 215.067 473.185 215.24 472.973 215.254C468.378 215.762 466.08 213.717 466.08 209.118C466.08 191.185 466.08 173.266 466.08 155.333C466.08 148.004 466.377 147.774 473.863 149.226V214.852H473.849Z" fill="black"/>
<path d="M202.286 307.737H194.574V299.834H210.394C210.507 302.277 210.62 304.734 210.747 307.551C213.346 307.665 215.846 307.78 218.389 307.91C218.742 310.669 218.233 313.988 219.632 315.526C220.86 316.891 224.208 316.287 226.92 316.589C227.047 319.046 227.174 321.503 227.316 324.277C229.816 324.406 232.217 324.521 234.929 324.665V332.626C230.254 332.626 225.592 332.726 220.945 332.511C220.295 332.482 219.279 331.045 219.18 330.168C218.558 324.521 218.629 324.521 212.866 324.291C212.301 324.262 211.736 324.148 210.719 324.004V316.273C207.866 315.914 204.645 316.445 203.332 315.066C202.004 313.701 202.597 310.424 202.315 307.723L202.286 307.737Z" fill="black"/>
<path d="M276.527 551.016C278.179 550.901 279.196 550.786 280.227 550.772C284.323 550.743 288.405 550.772 292.742 550.772V558.833H285.072C284.874 559.767 284.677 560.328 284.662 560.903C284.394 566.521 284.38 566.435 278.772 567.24C277.939 567.355 277.035 568.634 276.597 569.582C276.23 570.372 276.541 571.464 276.512 572.413C276.47 573.347 276.371 574.281 276.301 575.1C275.919 575.301 275.707 575.474 275.51 575.488C273.306 575.646 270.552 575.028 269.069 576.149C267.939 577.011 268.518 580.086 268.08 582.112C267.925 582.802 266.992 583.794 266.385 583.808C261.738 583.952 257.077 583.88 252.514 583.88C251.657 578.86 254.143 576.048 259.972 575.445C260.085 572.973 260.198 570.444 260.325 567.973C263.15 567.556 266.427 568.016 267.91 566.579C269.224 565.3 268.56 561.909 268.8 559.121H276.555V551.031L276.527 551.016Z" fill="black"/>
<path d="M243.614 173.568V165.348C240.931 165.205 238.515 165.061 235.846 164.917V149.024H243.572V156.971H251.27C251.595 159.859 251.044 163.164 252.414 164.716C253.615 166.096 256.962 165.521 259.801 165.866V173.482C261.892 173.582 263.601 173.798 265.296 173.712C267.386 173.597 268.276 174.329 268.206 176.557C268.079 180.25 268.107 183.957 268.206 187.665C268.248 189.59 267.683 190.395 265.621 190.467C260.239 190.653 260.098 190.74 260.197 185.294C260.253 182.563 259.307 181.557 256.736 181.931C253.233 182.448 251.355 181.299 252.033 177.333C252.541 174.373 251.27 173.18 248.332 173.539C246.962 173.712 245.549 173.568 243.628 173.568H243.614Z" fill="black"/>
<path d="M309.083 241.105C306.682 240.846 304.266 240.573 301.837 240.3C301.47 237.628 301.95 234.308 300.537 232.799C299.28 231.449 295.947 232.11 293.192 231.851V224.02C290.367 223.89 287.853 223.761 285.297 223.646C285.028 220.944 285.622 217.668 284.308 216.274C282.994 214.88 279.76 215.369 277.02 214.981V199.002C279.35 199.146 282.571 198.413 283.842 199.692C285.184 201.057 284.675 204.319 285.028 207.164H292.952V215.383C295.735 215.685 298.955 215.096 300.297 216.447C301.639 217.797 301.116 221.074 301.47 223.976H309.012V241.191L309.097 241.119L309.083 241.105Z" fill="black"/>
<path d="M219.08 408.182H186.593C186.438 407.032 186.212 406.141 186.212 405.25C186.155 399.473 187.017 399.646 180.703 399.66C175.548 399.66 170.392 399.488 165.251 399.732C162.214 399.876 160.886 398.999 161.282 395.766C161.437 394.53 161.056 393.208 160.914 391.929L160.844 392.016C165.872 391.872 170.886 391.671 175.915 391.613C181.861 391.541 187.822 391.599 194.094 391.599V400.034C197.145 400.034 199.885 400.034 202.625 400.034C206.848 400.034 211.072 400.192 215.281 399.976C218.134 399.833 219.052 400.939 218.812 403.684C218.671 405.207 218.897 406.773 218.967 408.311L219.08 408.196V408.182Z" fill="black"/>
<path d="M605.676 341.147V349.151H589.758V341.679C590.097 341.593 590.521 341.406 590.958 341.377C593.035 341.205 595.648 341.779 597.032 340.716C598.106 339.883 597.385 336.937 597.936 335.069C598.19 334.207 599.518 333.158 600.436 333.086C603.826 332.856 607.244 332.841 610.634 333.028C613.36 333.172 614.42 332.295 614.307 329.393C614.095 324.004 613.911 324.507 619.307 324.493C622.81 324.493 626.313 324.493 630.381 324.493C630.381 326.663 630.635 328.574 630.282 330.356C630.098 331.246 628.898 332.453 628.022 332.583C622.556 333.33 622.542 333.244 622.245 339.035C622.217 339.61 622.09 340.17 621.934 341.162H605.662L605.676 341.147Z" fill="black"/>
<path d="M425.259 659.249H416.671C416.671 655.082 416.403 651.044 416.742 647.064C417.067 643.256 415.598 642.135 412.152 642.609C411.036 642.767 409.877 642.508 408.521 642.437V617.764C410.329 617.764 412.039 617.85 413.734 617.735C415.782 617.606 416.403 618.583 416.361 620.508C416.29 623.971 416.46 627.435 416.318 630.898C416.205 633.427 416.912 634.619 419.652 634.519C424.991 634.332 424.624 633.8 424.709 639.749C424.793 646.288 424.991 652.826 425.146 659.364L425.259 659.249Z" fill="black"/>
<path d="M532.002 391.125C532.002 386.196 531.932 381.454 532.087 376.712C532.115 376.037 533.245 374.858 533.909 374.829C538.457 374.657 543.006 374.743 548.062 374.743C548.062 376.841 548.147 378.594 548.048 380.333C547.921 382.517 548.896 383.308 550.972 383.236C554.136 383.135 557.328 383.423 560.464 383.164C563.684 382.905 565.054 384.012 564.588 387.345C564.433 388.495 564.56 389.673 564.56 391.125H532.002Z" fill="black"/>
<path d="M144.812 257.544H160.759C160.915 258.148 161.084 258.579 161.127 259.01C161.282 261.137 160.717 263.795 161.762 265.203C162.582 266.295 165.421 265.879 167.37 265.979C169.813 266.108 169.333 267.933 169.347 269.385C169.376 274.558 169.008 274.4 174.15 274.141C177.285 273.983 177.893 275.291 177.78 278.093C177.681 280.679 177.865 282.835 174.192 282.461C171.042 282.145 167.836 282.246 164.672 282.447C162.031 282.605 161 281.656 161.296 278.969C161.466 277.475 161.324 275.952 161.324 274.141H153.231C153.231 272.244 153.104 270.621 153.259 269.04C153.513 266.338 152.383 265.333 149.799 265.591C148.315 265.735 146.804 265.62 144.925 265.62V257.429L144.812 257.544Z" fill="black"/>
<path d="M622.866 525.05H638.672V533.299C639.407 533.615 639.703 533.845 640.028 533.873C642.104 534.075 644.746 533.529 646.102 534.621C647.175 535.483 646.469 538.4 646.963 540.311C647.175 541.116 648.333 542.093 649.181 542.222C650.989 542.51 652.867 542.308 654.93 542.308V550.039H638.969V542.351C636.214 542.208 633.813 542.078 630.833 541.935C631.723 535.842 630.338 531.589 622.344 534.06C622.57 530.525 622.753 527.752 622.923 524.979L622.852 525.036L622.866 525.05Z" fill="black"/>
<path d="M358.788 592.588C360.61 592.588 361.769 592.588 362.927 592.588C364.085 592.588 365.243 592.588 366.684 592.588V616.988C366.034 617.146 365.596 617.318 365.144 617.347C360.888 617.653 358.76 620.048 358.76 624.532C358.76 627.592 358.76 630.668 358.76 633.901H351.02V609.4H358.788V592.588Z" fill="black"/>
<path d="M219.108 625.653H202.653C202.653 623.727 202.399 621.816 202.752 620.034C202.921 619.158 204.15 617.951 205.012 617.85C210.563 617.175 210.563 617.261 210.732 611.743C210.761 611.053 210.86 610.349 210.944 609.559C211.523 609.444 211.947 609.3 212.399 609.271C214.391 609.171 216.976 609.832 218.176 608.797C219.264 607.863 218.628 605.032 219.193 603.179C219.462 602.288 220.733 601.167 221.594 601.109C225.224 600.879 228.869 601.066 232.513 600.98C234.42 600.937 235.366 601.569 235.225 603.638C235.112 605.277 235.197 606.943 235.197 608.984H227.315C227.174 611.8 227.061 614.243 226.919 617.275C220.902 616.356 216.735 617.764 219.094 625.624L219.108 625.653Z" fill="black"/>
<path d="M425.261 207.466V182.218C426.603 182.218 428.086 182.103 429.527 182.247C432.196 182.505 433.411 181.571 433.213 178.654C433.016 175.694 433.397 172.677 433.114 169.716C432.775 166.138 434.216 164.989 437.507 165.477C438.524 165.621 439.584 165.506 440.897 165.506V190.366H432.86V206.948C429.993 207.106 427.563 207.236 425.162 207.365L425.261 207.48V207.466Z" fill="black"/>
<path d="M622.938 524.993H605.988V517.248C603.163 516.946 599.943 517.535 598.587 516.199C597.245 514.862 597.767 511.572 597.428 508.741H589.674V500.766H605.522C605.663 503.266 605.804 505.809 605.96 508.669H613.418C613.644 509.416 613.855 509.862 613.898 510.307C614.096 512.419 613.559 515.092 614.646 516.472C615.508 517.564 618.375 516.86 620.254 517.348C621.059 517.549 621.977 518.656 622.203 519.518C622.655 521.3 622.669 523.197 622.867 525.036L622.952 524.979L622.938 524.993Z" fill="black"/>
<path d="M326.443 693.535V668C328.11 668 329.833 667.914 331.528 668.015C333.661 668.144 334.452 667.224 334.395 665.069C334.297 660.672 334.367 656.275 334.367 651.576H342.122V676.076C340.257 676.076 338.52 676.191 336.811 676.047C334.607 675.86 333.929 676.866 334 678.979C334.099 682.442 333.845 685.919 334.085 689.354C334.282 692.299 333.124 693.147 330.441 692.932C329.113 692.831 327.729 693.248 326.387 693.435L326.457 693.521L326.443 693.535Z" fill="black"/>
<path d="M457.239 122.915V148.407C455.389 148.407 453.496 148.119 451.759 148.522C450.798 148.751 449.457 150.059 449.372 150.993C449.075 154.313 449.047 157.675 449.301 160.994C449.57 164.299 448.411 165.593 445.191 165.147C444.061 164.989 442.889 165.119 441.49 165.119V140.331C443.157 140.331 444.668 140.173 446.137 140.36C449.061 140.733 449.796 139.368 449.654 136.652C449.471 133.318 449.753 129.97 449.57 126.637C449.428 124.05 450.474 123.274 452.861 123.418C454.33 123.504 455.827 123.159 457.31 123.001L457.239 122.9V122.915Z" fill="black"/>
<path d="M169.898 492.23H210.267V499.975C209.038 500.033 207.781 500.162 206.538 500.162C195.86 500.176 185.196 500.162 174.517 500.162C171.212 500.162 169.597 498.462 169.672 495.061C169.687 494.242 169.785 493.437 169.884 492.23H169.898Z" fill="black"/>
<path d="M572.581 231.866C571.72 232.038 571.48 232.11 571.254 232.124C565.152 232.397 565.236 232.397 564.46 238.361C564.347 239.209 563.104 240.358 562.2 240.545C560.533 240.904 558.753 240.646 556.536 240.646C556.536 235.458 556.465 230.616 556.62 225.773C556.634 225.155 557.835 224.25 558.612 224.063C559.841 223.776 561.267 224.25 562.44 223.876C563.372 223.574 564.643 222.569 564.756 221.735C565.646 215.082 565.561 215.068 572.581 216.102V231.851V231.866Z" fill="black"/>
<path d="M556.507 475.417H572.892C572.892 477.444 572.949 479.312 572.878 481.165C572.807 482.947 573.499 483.637 575.322 483.766C581.551 484.183 581.551 484.255 580.675 491.813C575.901 491.813 571.042 491.9 566.197 491.67C565.703 491.641 564.982 489.658 564.926 488.566C564.686 483.508 564.756 483.321 559.954 483.493C557.044 483.594 556.182 482.473 556.479 479.757C556.62 478.478 556.507 477.156 556.507 475.432V475.417Z" fill="black"/>
<path d="M160.915 391.93C159.559 391.757 158.189 391.441 156.833 391.427C147.567 391.384 138.315 391.398 128.781 391.398V383.495H160.859C160.859 386.383 160.859 389.185 160.859 392.002L160.929 391.915L160.915 391.93Z" fill="black"/>
<path d="M218.756 592.415H210.591V599.916C209.984 600.29 209.8 600.491 209.603 600.506C204.96 600.917 202.634 598.791 202.625 594.125C202.625 593.048 202.625 591.97 202.625 590.907C202.625 584.8 202.625 584.886 208.43 584.124C209.264 584.009 210.097 582.759 210.648 581.854C210.959 581.336 210.606 580.431 210.733 579.741C210.987 578.434 211.156 576.178 211.721 576.048C213.727 575.617 215.888 575.847 217.979 576.02C218.275 576.048 218.699 577.184 218.699 577.816C218.756 582.457 218.727 587.099 218.727 592.401L218.756 592.415Z" fill="black"/>
<path d="M573.372 358.118C573.104 360.575 572.85 363.032 572.525 366.035C566.536 365.03 562.609 366.696 564.827 374.269H548.357C548.555 371.798 547.891 368.521 549.162 367.242C550.518 365.892 553.711 366.423 556.423 366.107V358.218H573.471L573.372 358.118Z" fill="black"/>
<path d="M524.049 291.5V274.27H531.451C531.931 271.282 531.634 268.206 532.99 266.453C533.88 265.304 537.157 266.051 539.671 265.936V281.958C539.233 282.073 538.697 282.332 538.146 282.375C532.34 282.763 532.411 282.763 531.521 288.755C531.408 289.545 530.278 290.58 529.459 290.796C527.693 291.241 525.815 291.227 523.979 291.399L524.049 291.485V291.5Z" fill="black"/>
<path d="M259.576 508.54V525.022C257.175 525.28 253.94 524.677 252.401 526.056C251.059 527.263 251.61 530.683 251.299 533.457C248.77 533.586 246.228 533.701 243.686 533.83L243.813 533.945V517.98C244.123 517.736 244.293 517.492 244.477 517.463C246.864 517.147 250.126 517.707 251.412 516.342C252.725 514.948 252.076 511.658 252.344 508.626H259.675L259.562 508.54H259.576Z" fill="black"/>
<path d="M227.768 559.236V542.682C227.909 542.639 228.319 542.423 228.757 542.395C230.833 542.222 233.46 542.797 234.83 541.719C235.89 540.886 235.226 537.954 235.706 536.058C235.918 535.239 237.034 534.233 237.853 534.103C239.802 533.802 241.822 533.974 243.814 533.96C243.814 533.96 243.687 533.845 243.701 533.845C243.701 539.162 243.701 544.493 243.701 549.508C243.122 549.953 242.952 550.183 242.768 550.212C240.395 550.528 237.147 549.967 235.861 551.333C234.562 552.712 235.183 555.988 234.943 558.676C232.486 558.848 230.084 559.035 227.697 559.207L227.782 559.265L227.768 559.236Z" fill="black"/>
<path d="M573.528 307.938C573.175 310.453 572.821 312.968 572.44 315.669H540.32V307.982C551.437 307.982 562.51 307.982 573.598 307.982L573.542 307.938H573.528Z" fill="black"/>
<path d="M647.245 307.737H654.999C655.112 306.573 655.268 305.668 655.282 304.763C655.367 299.345 654.364 299.547 660.367 299.532C663.983 299.532 667.613 299.532 671.455 299.532V307.594H663.601C663.446 310.424 663.305 312.968 663.135 315.856C658.276 315.856 653.714 315.928 649.166 315.77C648.502 315.741 647.443 314.62 647.33 313.888C647.061 312.034 647.245 310.123 647.245 307.737Z" fill="black"/>
<path d="M589.588 190.854V206.934C586.678 207.078 584.15 207.193 581.565 207.308C581.099 209.952 581.282 213.027 579.912 214.924C579.135 215.987 575.774 215.11 573.33 215.11V199.419C575.943 199.06 579.192 199.534 580.675 198.111C582.003 196.832 581.409 193.455 581.706 190.524C584.404 190.653 587.045 190.797 589.687 190.926L589.588 190.84V190.854Z" fill="black"/>
<path d="M556.169 257.415H548.527C548.132 260.231 548.556 263.422 547.185 265.074C546.168 266.295 542.835 265.548 540.307 265.678V249.655C542.976 249.31 546.225 249.828 547.75 248.405C549.078 247.169 548.471 243.764 548.753 241.077H556.183V257.401L556.169 257.415Z" fill="black"/>
<path d="M565.068 391.815H597.23V399.646H591.623C584.221 399.646 576.82 399.646 569.418 399.646C566.339 399.646 564.823 398.065 564.87 394.904C564.884 393.97 564.983 393.036 565.068 391.8V391.815Z" fill="black"/>
<path d="M630.394 408.038H597.879C597.879 405.854 597.709 403.741 597.978 401.701C598.063 401.069 599.334 400.12 600.082 400.12C609.461 400.005 618.84 400.005 628.219 400.134C628.954 400.134 630.168 401.342 630.295 402.132C630.606 403.957 630.394 405.868 630.394 408.038Z" fill="black"/>
<path d="M359.213 123.748C364.383 123.202 366.967 125.372 366.967 130.257C366.967 136.192 366.967 142.112 366.967 148.219H359.213V123.762V123.748Z" fill="black"/>
<path d="M375.838 173.194C373.169 173.352 370.499 173.496 367.547 173.668V149.082H375.301C375.301 153.263 375.245 157.402 375.316 161.54C375.386 165.449 375.598 169.372 375.753 173.28L375.838 173.194Z" fill="black"/>
<path d="M441.335 709.73H433.213C433.213 701.697 433.17 694.11 433.283 686.523C433.283 685.933 434.315 684.927 434.964 684.856C436.885 684.64 438.863 684.769 441.222 684.769C441.222 693.449 441.222 701.639 441.222 709.845L441.335 709.73Z" fill="black"/>
<path d="M425.146 659.364H432.816C432.816 662.583 432.816 665.5 432.816 668.417C432.816 672.469 432.604 676.536 432.887 680.559C433.127 683.864 431.828 684.841 428.861 684.425C427.731 684.267 426.559 684.295 425.245 684.238C425.245 675.774 425.245 667.512 425.245 659.249L425.146 659.364Z" fill="black"/>
<path d="M375.752 173.295C376.063 173.424 376.373 173.654 376.712 173.683C381.185 174.066 383.422 176.6 383.422 181.284C383.422 185.825 383.252 190.38 383.478 194.907C383.634 197.953 382.56 199.045 379.665 198.672C378.52 198.528 377.334 198.643 375.823 198.643C375.823 190.021 375.823 181.615 375.823 173.194L375.752 173.281V173.295Z" fill="black"/>
<path d="M358.534 123.13H351.076V98.8311H358.534V123.13Z" fill="black"/>
<path d="M400.245 592.76H407.929V617.347C405.98 617.347 404.03 617.519 402.124 617.261C401.417 617.16 400.344 616.01 400.33 615.321C400.203 607.935 400.245 600.549 400.245 592.76Z" fill="black"/>
<path d="M375.288 575.732C375.288 580.905 375.358 585.647 375.203 590.389C375.175 591.065 374.115 592.171 373.409 592.286C371.587 592.559 369.708 592.372 367.335 592.372C367.335 587.098 367.279 582.141 367.42 577.183C367.434 576.68 368.649 575.876 369.369 575.79C371.093 575.588 372.872 575.718 375.288 575.718V575.732Z" fill="black"/>
<path d="M227.682 559.178C227.499 562.929 227.287 566.679 227.131 570.43C227.061 571.953 227.131 573.491 227.131 575.287H219.377V559.222C222.244 559.222 225.013 559.222 227.781 559.222L227.711 559.164L227.682 559.178Z" fill="black"/>
<path d="M259.675 508.626C259.915 503.223 260.141 497.82 260.395 492.259H267.839V508.554C265.085 508.554 262.331 508.554 259.576 508.554L259.675 508.626Z" fill="black"/>
<path d="M218.812 157.014H226.821C227.076 162.546 227.316 167.921 227.57 173.281L227.641 173.194C224.971 173.352 222.301 173.511 218.94 173.697C218.94 167.806 218.94 162.345 218.94 156.885L218.812 157V157.014Z" fill="black"/>
<path d="M523.484 549.738C522.919 550.068 522.82 550.154 522.721 550.169C515.517 551.175 515.461 551.132 515.461 543.789C515.461 541.992 515.673 540.168 515.418 538.414C514.868 534.635 516.478 533.73 519.953 533.874C522.679 533.989 523.71 534.678 523.554 537.552C523.328 541.59 523.498 545.642 523.498 549.723L523.484 549.738Z" fill="black"/>
<path d="M185.634 73.5117V89.6345H178.119V73.5117H185.634Z" fill="black"/>
<path d="M227.555 173.281C227.993 173.424 228.416 173.669 228.854 173.697C233.101 173.985 235.224 176.241 235.224 180.465C235.224 182.492 235.027 184.532 235.267 186.529C235.648 189.763 234.349 190.855 231.312 190.424C230.182 190.266 229.01 190.395 227.625 190.395C227.625 184.46 227.625 178.827 227.625 173.194L227.555 173.281Z" fill="black"/>
<path d="M539.741 516.745H523.992V509.028H539.741V516.745Z" fill="black"/>
<path d="M342.616 650.872V634.792H350.398C350.398 639.606 350.455 644.42 350.314 649.219C350.3 649.78 349.212 650.714 348.534 650.785C346.712 651.001 344.847 650.857 342.602 650.857L342.616 650.872Z" fill="black"/>
<path d="M153.231 241.019H169.362C169.362 242.959 169.616 244.856 169.249 246.638C169.079 247.514 167.822 248.736 166.989 248.793C163.726 249.052 160.421 248.707 157.158 248.965C154.079 249.195 152.765 248.175 153.203 244.971C153.359 243.821 153.231 242.628 153.231 241.019Z" fill="black"/>
<path d="M573.472 358.233C573.302 355.646 573.133 353.06 572.949 350.114H589.136V358.118C583.839 358.118 578.599 358.118 573.373 358.118L573.472 358.233Z" fill="black"/>
<path d="M185.492 458.749C186.18 463.998 184.108 466.623 179.277 466.623C176.255 466.623 173.246 466.623 169.955 466.623V458.749H185.492Z" fill="black"/>
<path d="M598.246 542.51H613.346C613.572 542.883 613.784 543.085 613.798 543.286C614.259 548.028 612.188 550.399 607.583 550.399C606.411 550.399 605.238 550.399 604.066 550.399C597.074 550.399 596.989 550.298 598.246 542.51Z" fill="black"/>
<path d="M185.803 257.228H170.012V249.296C174.701 249.296 179.235 249.196 183.769 249.397C184.476 249.425 185.563 250.69 185.719 251.523C186.029 253.233 185.803 255.058 185.803 257.243V257.228Z" fill="black"/>
<path d="M631.369 324.09C631.143 323.846 631.016 323.76 631.002 323.674C629.928 316.474 630.098 316.259 637.188 316.259C640.211 316.259 643.234 316.259 646.539 316.259V324.09H631.369Z" fill="black"/>
<path d="M202.018 458.203H186.48V450.558H202.018V458.203Z" fill="black"/>
<path d="M523.935 223.387C523.413 227.023 523.808 230.155 522.452 231.693C521.492 232.785 517.509 232.526 516.096 231.348C514.98 230.414 514.825 226.117 515.856 225.212C517.452 223.818 520.404 224.063 523.935 223.387Z" fill="black"/>
<path d="M506.506 241.076C507.198 237.484 506.972 234.466 508.356 232.871C509.26 231.822 513.498 232.009 514.388 233.144C515.532 234.596 515.772 238.662 514.698 239.625C513.173 241.005 510.079 240.573 506.506 241.091V241.076Z" fill="black"/>
<path d="M605.366 709.989H613.389C615.338 717.331 613.968 718.812 606.227 717.475C605.973 714.989 605.719 712.446 605.45 709.902L605.352 709.974L605.366 709.989Z" fill="black"/>
<path d="M243.884 592.976V584.843C251.074 582.802 252.585 584.239 251.243 592.056C248.785 592.329 246.285 592.617 243.785 592.89L243.884 592.991V592.976Z" fill="black"/>
<path d="M515.335 609.171H507.396V601.038C509.303 601.038 511.253 600.822 513.117 601.138C513.88 601.267 514.925 602.446 515.052 603.265C515.349 605.234 515.193 607.274 515.208 609.286L515.335 609.171Z" fill="black"/>
<path d="M540.124 634.389C539.545 634.317 538.965 634.202 538.386 634.188C531.197 634.016 531.027 633.8 532.412 626.213H540.011C540.011 629.101 540.011 631.803 540.011 634.504L540.124 634.389Z" fill="black"/>
<path d="M441.265 525.654H448.553C450.799 533.026 449.485 534.477 441.42 533.27C441.363 532.106 441.293 530.856 441.265 529.591C441.236 528.413 441.265 527.235 441.265 525.64V525.654Z" fill="black"/>
<path d="M243.46 341.736C240.988 341.42 238.516 341.09 235.818 340.745V333.229H243.418C243.418 336.218 243.418 339.02 243.418 341.823L243.474 341.736H243.46Z" fill="black"/>
<path d="M308.998 241.192C311.668 241.048 314.337 240.904 317.219 240.746C317.36 242.025 317.529 242.945 317.558 243.864C317.671 248.721 315.552 250.359 310.947 248.764C310.283 248.534 309.747 247.256 309.577 246.379C309.252 244.655 309.238 242.873 309.097 241.12L308.998 241.206V241.192Z" fill="black"/>
<path d="M638.601 123.733V131.105C629.773 132.528 630.268 131.938 631.2 123.733H638.601Z" fill="black"/>
<path d="M515.207 609.3H523.173V616.902C522.947 617.017 522.849 617.103 522.75 617.131C518.145 617.812 515.673 615.163 515.334 609.185L515.207 609.314V609.3Z" fill="black"/>
<path d="M457.281 291.155C454.639 290.81 451.659 291.27 450.134 289.962C449.046 289.028 449.032 284.731 450.134 283.74C451.602 282.404 454.597 282.82 457.295 282.418V291.155H457.281Z" fill="black"/>
<path d="M62.0547 190.739H70.7838C70.4448 193.426 70.7697 196.329 69.5691 198.197C68.9193 199.203 64.5689 199.318 63.792 198.312C62.4643 196.588 62.6338 193.671 62.0688 190.739H62.0547Z" fill="black"/>
<path d="M580.507 173.984C582.131 181.715 581.157 182.736 573.346 181.5V173.984H580.507Z" fill="black"/>
<path d="M268.969 190.797H276.243V198.283C268.404 199.462 267.415 198.442 268.969 190.797Z" fill="black"/>
<path d="M720.766 600.29C712.94 601.426 712.418 600.908 713.378 592.904H720.766V600.29Z" fill="black"/>
<path d="M185.393 290.652H178.076V283.424C185.068 281.082 186.763 282.706 185.393 290.652Z" fill="black"/>
<path d="M589.208 492.402V499.558C581.764 501.527 580.789 500.622 581.637 492.402H589.208Z" fill="black"/>
<path d="M144.925 257.429H137.029V249.512H144.812C144.812 252.343 144.812 254.943 144.812 257.544L144.925 257.429Z" fill="black"/>
<path d="M548.781 475.072C547.722 466.781 548.131 466.379 556.168 467.313C556.225 468.491 556.31 469.756 556.352 471.006C556.38 472.184 556.352 473.363 556.352 475.072H548.781Z" fill="black"/>
<path d="M293.277 542.538C294.294 542.467 295.099 542.366 295.905 542.352C297.416 542.323 298.927 542.352 300.396 542.352C302.006 551.52 301.23 550.916 293.291 549.953V542.553L293.277 542.538Z" fill="black"/>
<path d="M227.528 148.076C227.443 147.199 227.316 146.509 227.302 145.82C227.273 144.167 227.302 142.529 227.302 140.604H234.661C236.525 148.033 235.579 149.067 227.528 148.076Z" fill="black"/>
<path d="M531.183 625.639H523.895V618.238C531.522 616.744 532.468 617.706 531.183 625.639Z" fill="black"/>
<path d="M86.6463 207.006H79.3438V199.62C88.1859 198.14 87.409 198.743 86.6463 207.006Z" fill="black"/>
<path d="M186.467 291.299H193.995C193.995 293.828 193.995 296.156 193.995 298.469C186.975 300.84 185.591 299.605 186.467 291.299Z" fill="black"/>
<path d="M243.784 592.89C243.671 595.261 243.558 597.632 243.417 600.333H235.902V592.53C238.614 592.688 241.256 592.832 243.883 592.99L243.784 592.904V592.89Z" fill="black"/>
</svg>
